# Blender 4.2.3 LTS
# www.blender.org
mtllib mat_026_left.mtl
o mat_026_left
v -0.014582 0.028380 -0.002512
v -0.020585 0.040952 -0.051899
v -0.021048 0.040828 -0.051868
v -0.015046 0.028258 -0.002487
v -0.021424 0.040530 -0.051881
v -0.015424 0.027964 -0.002516
v -0.021649 0.040108 -0.051936
v -0.015652 0.027548 -0.002594
v -0.021683 0.039636 -0.052023
v -0.015689 0.027083 -0.002708
v -0.021520 0.039195 -0.052126
v -0.015530 0.026649 -0.002838
v -0.021189 0.038862 -0.052229
v -0.015201 0.026321 -0.002961
v -0.020747 0.038694 -0.052313
v -0.014761 0.026156 -0.003057
v -0.020271 0.038720 -0.052364
v -0.014284 0.026182 -0.003108
v -0.019841 0.038936 -0.052373
v -0.013854 0.026395 -0.003106
v -0.019534 0.039304 -0.052339
v -0.013544 0.026758 -0.003051
v -0.019402 0.039761 -0.052267
v -0.013409 0.027208 -0.002953
v -0.019468 0.040227 -0.052170
v -0.013471 0.027667 -0.002829
v -0.019720 0.040623 -0.052064
v -0.013720 0.028057 -0.002699
v -0.020115 0.040879 -0.051969
v -0.014113 0.028309 -0.002587
v -0.020794 0.041192 -0.053741
v -0.021255 0.041065 -0.053687
v -0.021624 0.040759 -0.053641
v -0.021839 0.040326 -0.053611
v -0.021862 0.039842 -0.053603
v -0.021690 0.039390 -0.053617
v -0.021351 0.039048 -0.053652
v -0.020905 0.038875 -0.053701
v -0.020428 0.038902 -0.053755
v -0.020004 0.039123 -0.053806
v -0.019705 0.039501 -0.053845
v -0.019584 0.039969 -0.053864
v -0.019660 0.040448 -0.053861
v -0.019922 0.040854 -0.053836
v -0.020323 0.041117 -0.053793
v -0.021005 0.040906 -0.055595
v -0.021462 0.040784 -0.055507
v -0.021822 0.040491 -0.055379
v -0.022024 0.040076 -0.055232
v -0.022032 0.039612 -0.055093
v -0.021845 0.039178 -0.054986
v -0.021496 0.038851 -0.054928
v -0.021045 0.038685 -0.054930
v -0.020569 0.038711 -0.054992
v -0.020152 0.038923 -0.055103
v -0.019864 0.039285 -0.055243
v -0.019757 0.039734 -0.055388
v -0.019848 0.040193 -0.055514
v -0.020122 0.040582 -0.055599
v -0.020531 0.040834 -0.055627
v -0.021196 0.040146 -0.057276
v -0.021650 0.040038 -0.057157
v -0.022001 0.039778 -0.056956
v -0.022191 0.039410 -0.056707
v -0.022186 0.038998 -0.056453
v -0.021988 0.038613 -0.056238
v -0.021629 0.038322 -0.056099
v -0.021173 0.038175 -0.056060
v -0.020698 0.038197 -0.056128
v -0.020287 0.038386 -0.056291
v -0.020010 0.038707 -0.056521
v -0.019915 0.039106 -0.056778
v -0.020019 0.039513 -0.057018
v -0.020304 0.039859 -0.057200
v -0.020721 0.040082 -0.057290
v -0.021359 0.038982 -0.058707
v -0.021809 0.038894 -0.058564
v -0.022155 0.038683 -0.058303
v -0.022335 0.038383 -0.057969
v -0.022319 0.038049 -0.057620
v -0.022110 0.037736 -0.057316
v -0.021744 0.037499 -0.057110
v -0.021284 0.037380 -0.057037
v -0.020810 0.037398 -0.057110
v -0.020404 0.037551 -0.057317
v -0.020135 0.037813 -0.057621
v -0.020051 0.038137 -0.057970
v -0.020166 0.038468 -0.058304
v -0.020460 0.038748 -0.058565
v -0.020882 0.038930 -0.058707
v -0.021486 0.037476 -0.059819
v -0.021934 0.037414 -0.059657
v -0.022274 0.037264 -0.059351
v -0.022447 0.037053 -0.058952
v -0.022423 0.036815 -0.058531
v -0.022206 0.036594 -0.058160
v -0.021834 0.036426 -0.057903
v -0.021372 0.036342 -0.057804
v -0.020898 0.036355 -0.057881
v -0.020495 0.036463 -0.058121
v -0.020233 0.036648 -0.058481
v -0.020157 0.036878 -0.058900
v -0.020280 0.037112 -0.059306
v -0.020580 0.037311 -0.059627
v -0.021007 0.037440 -0.059809
v -0.021568 0.035691 -0.060541
v -0.022015 0.035659 -0.060367
v -0.022351 0.035581 -0.060031
v -0.022519 0.035471 -0.059591
v -0.022490 0.035348 -0.059124
v -0.022269 0.035233 -0.058709
v -0.021893 0.035147 -0.058419
v -0.021428 0.035103 -0.058305
v -0.020955 0.035110 -0.058384
v -0.020555 0.035166 -0.058645
v -0.020297 0.035262 -0.059041
v -0.020225 0.035381 -0.059505
v -0.020353 0.035502 -0.059956
v -0.020659 0.035605 -0.060316
v -0.021088 0.035672 -0.060523
v -0.021596 0.033770 -0.060787
v -0.022042 0.033762 -0.060609
v -0.022378 0.033743 -0.060266
v -0.022545 0.033716 -0.059816
v -0.022514 0.033685 -0.059337
v -0.022292 0.033656 -0.058911
v -0.021915 0.033634 -0.058613
v -0.021450 0.033623 -0.058494
v -0.020977 0.033625 -0.058575
v -0.020577 0.033639 -0.058841
v -0.020320 0.033663 -0.059246
v -0.020250 0.033693 -0.059721
v -0.020380 0.033723 -0.060184
v -0.020686 0.033749 -0.060553
v -0.021116 0.033766 -0.060767
v -0.021596 -0.030533 -0.060787
v -0.022042 -0.030525 -0.060610
v -0.022378 -0.030506 -0.060266
v -0.022545 -0.030478 -0.059816
v -0.022514 -0.030448 -0.059337
v -0.022292 -0.030419 -0.058911
v -0.021915 -0.030397 -0.058613
v -0.021450 -0.030386 -0.058494
v -0.020977 -0.030388 -0.058575
v -0.020577 -0.030402 -0.058841
v -0.020320 -0.030426 -0.059246
v -0.020250 -0.030456 -0.059721
v -0.020380 -0.030486 -0.060184
v -0.020686 -0.030512 -0.060553
v -0.021116 -0.030529 -0.060767
v -0.021568 -0.032454 -0.060541
v -0.022015 -0.032422 -0.060367
v -0.022351 -0.032344 -0.060031
v -0.022519 -0.032234 -0.059591
v -0.022490 -0.032111 -0.059124
v -0.022269 -0.031996 -0.058709
v -0.021893 -0.031910 -0.058420
v -0.021428 -0.031866 -0.058305
v -0.020955 -0.031872 -0.058384
v -0.020555 -0.031929 -0.058645
v -0.020297 -0.032024 -0.059041
v -0.020225 -0.032143 -0.059505
v -0.020353 -0.032265 -0.059956
v -0.020659 -0.032368 -0.060316
v -0.021088 -0.032435 -0.060523
v -0.021486 -0.034239 -0.059820
v -0.021934 -0.034177 -0.059657
v -0.022274 -0.034027 -0.059351
v -0.022447 -0.033815 -0.058952
v -0.022423 -0.033578 -0.058531
v -0.022206 -0.033357 -0.058160
v -0.021834 -0.033189 -0.057903
v -0.021372 -0.033105 -0.057804
v -0.020898 -0.033118 -0.057881
v -0.020495 -0.033226 -0.058121
v -0.020233 -0.033411 -0.058481
v -0.020157 -0.033641 -0.058900
v -0.020280 -0.033875 -0.059306
v -0.020580 -0.034074 -0.059627
v -0.021007 -0.034203 -0.059809
v -0.021359 -0.035745 -0.058707
v -0.021809 -0.035657 -0.058564
v -0.022155 -0.035446 -0.058303
v -0.022335 -0.035146 -0.057969
v -0.022319 -0.034812 -0.057620
v -0.022110 -0.034499 -0.057316
v -0.021744 -0.034262 -0.057110
v -0.021284 -0.034143 -0.057037
v -0.020810 -0.034161 -0.057110
v -0.020404 -0.034314 -0.057317
v -0.020135 -0.034575 -0.057621
v -0.020051 -0.034900 -0.057970
v -0.020166 -0.035231 -0.058304
v -0.020460 -0.035511 -0.058565
v -0.020882 -0.035693 -0.058707
v -0.021196 -0.036909 -0.057276
v -0.021650 -0.036801 -0.057157
v -0.022001 -0.036541 -0.056956
v -0.022191 -0.036173 -0.056707
v -0.022186 -0.035760 -0.056453
v -0.021988 -0.035376 -0.056238
v -0.021629 -0.035085 -0.056099
v -0.021173 -0.034938 -0.056060
v -0.020698 -0.034960 -0.056128
v -0.020287 -0.035149 -0.056291
v -0.020010 -0.035470 -0.056521
v -0.019915 -0.035869 -0.056778
v -0.020019 -0.036276 -0.057018
v -0.020304 -0.036622 -0.057200
v -0.020721 -0.036845 -0.057290
v -0.021005 -0.037668 -0.055595
v -0.021462 -0.037547 -0.055507
v -0.021822 -0.037253 -0.055379
v -0.022024 -0.036839 -0.055232
v -0.022032 -0.036375 -0.055093
v -0.021845 -0.035941 -0.054986
v -0.021496 -0.035613 -0.054928
v -0.021045 -0.035448 -0.054930
v -0.020569 -0.035474 -0.054992
v -0.020152 -0.035686 -0.055103
v -0.019864 -0.036048 -0.055243
v -0.019757 -0.036497 -0.055388
v -0.019848 -0.036956 -0.055514
v -0.020122 -0.037345 -0.055599
v -0.020531 -0.037597 -0.055627
v -0.020794 -0.037955 -0.053740
v -0.021255 -0.037828 -0.053687
v -0.021624 -0.037522 -0.053641
v -0.021839 -0.037089 -0.053611
v -0.021862 -0.036605 -0.053603
v -0.021690 -0.036153 -0.053617
v -0.021351 -0.035811 -0.053652
v -0.020905 -0.035638 -0.053701
v -0.020428 -0.035665 -0.053755
v -0.020004 -0.035886 -0.053806
v -0.019705 -0.036263 -0.053845
v -0.019584 -0.036732 -0.053864
v -0.019660 -0.037211 -0.053861
v -0.019922 -0.037617 -0.053836
v -0.020323 -0.037880 -0.053793
v -0.020584 -0.037714 -0.051899
v -0.021048 -0.037591 -0.051868
v -0.021424 -0.037292 -0.051881
v -0.021649 -0.036871 -0.051936
v -0.021683 -0.036399 -0.052023
v -0.021520 -0.035958 -0.052127
v -0.021189 -0.035625 -0.052230
v -0.020747 -0.035457 -0.052314
v -0.020271 -0.035483 -0.052365
v -0.019841 -0.035699 -0.052374
v -0.019534 -0.036067 -0.052339
v -0.019402 -0.036524 -0.052267
v -0.019468 -0.036990 -0.052169
v -0.019720 -0.037386 -0.052063
v -0.020115 -0.037642 -0.051968
v -0.015166 -0.026268 -0.007157
v -0.015630 -0.026146 -0.007132
v -0.016008 -0.025852 -0.007161
v -0.016236 -0.025437 -0.007240
v -0.016273 -0.024972 -0.007354
v -0.016114 -0.024538 -0.007484
v -0.015785 -0.024210 -0.007608
v -0.015345 -0.024045 -0.007704
v -0.014868 -0.024071 -0.007755
v -0.014438 -0.024284 -0.007753
v -0.014128 -0.024646 -0.007697
v -0.013992 -0.025096 -0.007598
v -0.014055 -0.025556 -0.007473
v -0.014304 -0.025945 -0.007344
v -0.014697 -0.026197 -0.007231
v -0.019657 0.039186 -0.043862
v -0.020237 0.039032 -0.043839
v -0.019603 0.037484 -0.038264
v -0.019023 0.037638 -0.038288
v -0.020709 0.038665 -0.043887
v -0.020075 0.037117 -0.038312
v -0.020993 0.038148 -0.043998
v -0.020359 0.036600 -0.038424
v -0.021038 0.037570 -0.044154
v -0.020404 0.036022 -0.038579
v -0.020838 0.037031 -0.044326
v -0.020204 0.035483 -0.038752
v -0.020426 0.036625 -0.044486
v -0.019792 0.035077 -0.038911
v -0.019874 0.036421 -0.044605
v -0.019240 0.034873 -0.039031
v -0.019278 0.036455 -0.044664
v -0.018644 0.034907 -0.039089
v -0.018740 0.036721 -0.044651
v -0.018106 0.035173 -0.039076
v -0.018353 0.037173 -0.044569
v -0.017719 0.035625 -0.038995
v -0.018185 0.037733 -0.044433
v -0.017551 0.036185 -0.038859
v -0.018265 0.038303 -0.044266
v -0.017630 0.036755 -0.038691
v -0.018577 0.038787 -0.044096
v -0.017943 0.037239 -0.038521
v -0.019070 0.039099 -0.043953
v -0.018436 0.037551 -0.038378
v -0.019656 0.038877 -0.044028
v -0.019208 0.038811 -0.044097
v -0.018832 0.038573 -0.044206
v -0.018593 0.038204 -0.044335
v -0.018532 0.037768 -0.044463
v -0.018661 0.037341 -0.044567
v -0.018956 0.036996 -0.044630
v -0.019366 0.036793 -0.044639
v -0.019821 0.036767 -0.044595
v -0.020243 0.036922 -0.044504
v -0.020557 0.037233 -0.044382
v -0.020710 0.037644 -0.044250
v -0.020675 0.038085 -0.044132
v -0.020459 0.038480 -0.044046
v -0.020098 0.038760 -0.044010
v -0.019005 0.037289 -0.038307
v -0.019447 0.037172 -0.038289
v -0.019808 0.036891 -0.038326
v -0.018181 0.036984 -0.038485
v -0.018557 0.037222 -0.038376
v -0.017942 0.036615 -0.038615
v -0.017882 0.036180 -0.038743
v -0.018010 0.035752 -0.038847
v -0.018305 0.035407 -0.038909
v -0.018716 0.035204 -0.038919
v -0.019171 0.035178 -0.038874
v -0.019592 0.035334 -0.038783
v -0.019906 0.035644 -0.038661
v -0.020059 0.036055 -0.038530
v -0.020025 0.036497 -0.038411
v -0.020212 0.038987 -0.043934
v -0.019663 0.039133 -0.043956
v -0.020660 0.038640 -0.043979
v -0.020929 0.038150 -0.044085
v -0.020971 0.037602 -0.044232
v -0.020782 0.037092 -0.044395
v -0.020392 0.036707 -0.044547
v -0.019869 0.036514 -0.044660
v -0.019304 0.036546 -0.044715
v -0.018794 0.036798 -0.044703
v -0.018428 0.037226 -0.044626
v -0.018269 0.037756 -0.044497
v -0.018344 0.038297 -0.044338
v -0.018641 0.038755 -0.044177
v -0.019107 0.039050 -0.044042
v -0.019012 0.037544 -0.038235
v -0.019562 0.037399 -0.038213
v -0.018456 0.037462 -0.038321
v -0.017990 0.037166 -0.038456
v -0.017693 0.036709 -0.038617
v -0.017618 0.036168 -0.038776
v -0.017778 0.035637 -0.038905
v -0.018144 0.035209 -0.038982
v -0.018653 0.034957 -0.038994
v -0.019218 0.034925 -0.038939
v -0.019741 0.035118 -0.038826
v -0.020131 0.035503 -0.038675
v -0.020321 0.036014 -0.038511
v -0.020278 0.036561 -0.038364
v -0.020009 0.037051 -0.038259
v -0.020237 -0.035827 -0.043839
v -0.019657 -0.035981 -0.043862
v -0.019603 -0.034279 -0.038264
v -0.019023 -0.034433 -0.038288
v -0.020709 -0.035460 -0.043887
v -0.020075 -0.033912 -0.038312
v -0.020993 -0.034943 -0.043998
v -0.020359 -0.033395 -0.038424
v -0.021038 -0.034365 -0.044154
v -0.020404 -0.032817 -0.038579
v -0.020838 -0.033826 -0.044326
v -0.020204 -0.032278 -0.038752
v -0.020426 -0.033420 -0.044486
v -0.019792 -0.031872 -0.038911
v -0.019874 -0.033216 -0.044605
v -0.019240 -0.031668 -0.039031
v -0.019278 -0.033250 -0.044664
v -0.018644 -0.031702 -0.039089
v -0.018740 -0.033516 -0.044651
v -0.018106 -0.031968 -0.039076
v -0.018353 -0.033968 -0.044569
v -0.017719 -0.032420 -0.038995
v -0.018185 -0.034528 -0.044433
v -0.017551 -0.032980 -0.038858
v -0.018265 -0.035099 -0.044266
v -0.017631 -0.033551 -0.038691
v -0.018577 -0.035582 -0.044096
v -0.017943 -0.034034 -0.038521
v -0.019070 -0.035894 -0.043953
v -0.018436 -0.034346 -0.038378
v -0.019208 -0.035606 -0.044097
v -0.019656 -0.035672 -0.044028
v -0.018832 -0.035368 -0.044206
v -0.018593 -0.034999 -0.044335
v -0.018532 -0.034563 -0.044463
v -0.018661 -0.034136 -0.044567
v -0.018956 -0.033791 -0.044630
v -0.019366 -0.033588 -0.044639
v -0.019821 -0.033562 -0.044595
v -0.020243 -0.033717 -0.044504
v -0.020557 -0.034028 -0.044382
v -0.020710 -0.034439 -0.044250
v -0.020675 -0.034880 -0.044132
v -0.020459 -0.035275 -0.044046
v -0.020098 -0.035555 -0.044010
v -0.019447 -0.033967 -0.038289
v -0.019005 -0.034084 -0.038307
v -0.019808 -0.033686 -0.038326
v -0.018557 -0.034017 -0.038376
v -0.018181 -0.033779 -0.038485
v -0.017942 -0.033410 -0.038615
v -0.017882 -0.032975 -0.038743
v -0.018010 -0.032547 -0.038847
v -0.018305 -0.032202 -0.038909
v -0.018716 -0.031999 -0.038919
v -0.019171 -0.031973 -0.038874
v -0.019592 -0.032129 -0.038783
v -0.019906 -0.032439 -0.038661
v -0.020059 -0.032850 -0.038530
v -0.020025 -0.033292 -0.038411
v -0.020212 -0.035782 -0.043934
v -0.019663 -0.035928 -0.043956
v -0.020660 -0.035435 -0.043979
v -0.020929 -0.034945 -0.044085
v -0.020971 -0.034397 -0.044232
v -0.020782 -0.033887 -0.044395
v -0.020392 -0.033502 -0.044547
v -0.019869 -0.033309 -0.044660
v -0.019304 -0.033341 -0.044715
v -0.018794 -0.033593 -0.044703
v -0.018428 -0.034021 -0.044626
v -0.018269 -0.034551 -0.044497
v -0.018344 -0.035092 -0.044338
v -0.018641 -0.035550 -0.044177
v -0.019107 -0.035845 -0.044042
v -0.019012 -0.034339 -0.038235
v -0.019562 -0.034194 -0.038213
v -0.018456 -0.034257 -0.038321
v -0.017990 -0.033961 -0.038456
v -0.017693 -0.033503 -0.038617
v -0.017618 -0.032963 -0.038776
v -0.017778 -0.032432 -0.038905
v -0.018144 -0.032004 -0.038982
v -0.018653 -0.031752 -0.038994
v -0.019218 -0.031720 -0.038939
v -0.019741 -0.031913 -0.038826
v -0.020131 -0.032298 -0.038675
v -0.020321 -0.032809 -0.038511
v -0.020278 -0.033356 -0.038364
v -0.020009 -0.033846 -0.038259
v -0.021252 0.029636 -0.061084
v -0.020681 0.029636 -0.060898
v -0.020681 0.024796 -0.060898
v -0.021252 0.024796 -0.061084
v -0.020235 0.029636 -0.060497
v -0.020235 0.024796 -0.060497
v -0.019991 0.029636 -0.059949
v -0.019991 0.024796 -0.059949
v -0.019991 0.029636 -0.059348
v -0.019991 0.024796 -0.059348
v -0.020234 0.029636 -0.058800
v -0.020234 0.024796 -0.058800
v -0.020680 0.029636 -0.058398
v -0.020680 0.024796 -0.058398
v -0.021251 0.029636 -0.058212
v -0.021251 0.024796 -0.058212
v -0.021848 0.029636 -0.058275
v -0.021848 0.024796 -0.058275
v -0.022368 0.029636 -0.058575
v -0.022368 0.024796 -0.058575
v -0.022721 0.029636 -0.059060
v -0.022721 0.024796 -0.059060
v -0.022846 0.029636 -0.059648
v -0.022846 0.024796 -0.059648
v -0.022721 0.029636 -0.060235
v -0.022721 0.024796 -0.060235
v -0.022369 0.029636 -0.060720
v -0.022369 0.024796 -0.060720
v -0.021849 0.029636 -0.061021
v -0.021849 0.024796 -0.061021
v -0.021291 0.029751 -0.060712
v -0.021733 0.029751 -0.060665
v -0.022118 0.029751 -0.060443
v -0.022380 0.029751 -0.060083
v -0.022472 0.029751 -0.059648
v -0.022379 0.029751 -0.059213
v -0.022118 0.029751 -0.058853
v -0.021733 0.029751 -0.058631
v -0.021290 0.029751 -0.058584
v -0.020868 0.029751 -0.058722
v -0.020537 0.029751 -0.059020
v -0.020356 0.029751 -0.059426
v -0.020356 0.029751 -0.059871
v -0.020537 0.029751 -0.060277
v -0.020868 0.029751 -0.060574
v -0.021291 0.024680 -0.060712
v -0.020868 0.024680 -0.060574
v -0.020537 0.024680 -0.060277
v -0.022118 0.024680 -0.060443
v -0.021733 0.024680 -0.060665
v -0.022380 0.024680 -0.060083
v -0.022472 0.024680 -0.059648
v -0.022379 0.024680 -0.059213
v -0.022118 0.024680 -0.058853
v -0.021733 0.024680 -0.058631
v -0.021290 0.024680 -0.058584
v -0.020868 0.024680 -0.058722
v -0.020537 0.024680 -0.059020
v -0.020356 0.024680 -0.059426
v -0.020356 0.024680 -0.059871
v -0.020739 0.029751 -0.060798
v -0.021264 0.029751 -0.060969
v -0.020328 0.029751 -0.060429
v -0.020104 0.029751 -0.059924
v -0.020103 0.029751 -0.059372
v -0.020328 0.029751 -0.058868
v -0.020738 0.029751 -0.058498
v -0.021263 0.029751 -0.058327
v -0.021813 0.029751 -0.058385
v -0.022291 0.029751 -0.058661
v -0.022616 0.029751 -0.059108
v -0.022730 0.029751 -0.059648
v -0.022616 0.029751 -0.060188
v -0.022291 0.029751 -0.060635
v -0.021813 0.029751 -0.060911
v -0.021264 0.024680 -0.060969
v -0.020739 0.024680 -0.060798
v -0.021813 0.024680 -0.060911
v -0.022291 0.024680 -0.060635
v -0.022616 0.024680 -0.060188
v -0.022730 0.024680 -0.059648
v -0.022616 0.024680 -0.059108
v -0.022291 0.024680 -0.058661
v -0.021813 0.024680 -0.058385
v -0.021263 0.024680 -0.058327
v -0.020738 0.024680 -0.058498
v -0.020328 0.024680 -0.058868
v -0.020103 0.024680 -0.059372
v -0.020104 0.024680 -0.059924
v -0.020328 0.024680 -0.060429
v -0.021252 -0.021524 -0.061084
v -0.020681 -0.021524 -0.060898
v -0.020681 -0.026363 -0.060898
v -0.021252 -0.026363 -0.061084
v -0.020235 -0.021524 -0.060497
v -0.020235 -0.026363 -0.060497
v -0.019991 -0.021524 -0.059949
v -0.019991 -0.026363 -0.059949
v -0.019991 -0.021524 -0.059348
v -0.019991 -0.026363 -0.059348
v -0.020234 -0.021524 -0.058800
v -0.020234 -0.026363 -0.058800
v -0.020680 -0.021524 -0.058398
v -0.020680 -0.026363 -0.058398
v -0.021251 -0.021524 -0.058212
v -0.021251 -0.026363 -0.058212
v -0.021848 -0.021524 -0.058275
v -0.021848 -0.026363 -0.058275
v -0.022368 -0.021524 -0.058575
v -0.022368 -0.026363 -0.058575
v -0.022721 -0.021524 -0.059060
v -0.022721 -0.026363 -0.059060
v -0.022846 -0.021524 -0.059648
v -0.022846 -0.026363 -0.059648
v -0.022721 -0.021524 -0.060235
v -0.022721 -0.026363 -0.060235
v -0.022369 -0.021524 -0.060720
v -0.022369 -0.026363 -0.060720
v -0.021849 -0.021524 -0.061021
v -0.021849 -0.026363 -0.061021
v -0.021291 -0.021408 -0.060712
v -0.021733 -0.021408 -0.060665
v -0.022118 -0.021408 -0.060443
v -0.022380 -0.021408 -0.060083
v -0.022472 -0.021408 -0.059648
v -0.022379 -0.021408 -0.059213
v -0.022118 -0.021408 -0.058853
v -0.021733 -0.021408 -0.058631
v -0.021290 -0.021408 -0.058584
v -0.020868 -0.021408 -0.058722
v -0.020537 -0.021408 -0.059020
v -0.020356 -0.021408 -0.059426
v -0.020356 -0.021408 -0.059871
v -0.020537 -0.021408 -0.060277
v -0.020868 -0.021408 -0.060574
v -0.021291 -0.026479 -0.060712
v -0.020868 -0.026479 -0.060574
v -0.020537 -0.026479 -0.060277
v -0.022118 -0.026479 -0.060443
v -0.021733 -0.026479 -0.060665
v -0.022380 -0.026479 -0.060083
v -0.022472 -0.026479 -0.059648
v -0.022379 -0.026479 -0.059213
v -0.022118 -0.026479 -0.058853
v -0.021733 -0.026479 -0.058631
v -0.021290 -0.026479 -0.058584
v -0.020868 -0.026479 -0.058722
v -0.020537 -0.026479 -0.059020
v -0.020356 -0.026479 -0.059426
v -0.020356 -0.026479 -0.059871
v -0.020739 -0.021408 -0.060798
v -0.021264 -0.021408 -0.060969
v -0.020328 -0.021408 -0.060429
v -0.020104 -0.021408 -0.059924
v -0.020103 -0.021408 -0.059372
v -0.020328 -0.021408 -0.058868
v -0.020738 -0.021408 -0.058498
v -0.021263 -0.021408 -0.058327
v -0.021813 -0.021408 -0.058385
v -0.022291 -0.021408 -0.058661
v -0.022616 -0.021408 -0.059108
v -0.022730 -0.021408 -0.059648
v -0.022616 -0.021408 -0.060188
v -0.022291 -0.021408 -0.060635
v -0.021813 -0.021408 -0.060911
v -0.021264 -0.026479 -0.060969
v -0.020739 -0.026479 -0.060798
v -0.021813 -0.026479 -0.060911
v -0.022291 -0.026479 -0.060635
v -0.022616 -0.026479 -0.060188
v -0.022730 -0.026479 -0.059648
v -0.022616 -0.026479 -0.059108
v -0.022291 -0.026479 -0.058661
v -0.021813 -0.026479 -0.058385
v -0.021263 -0.026479 -0.058327
v -0.020738 -0.026479 -0.058498
v -0.020328 -0.026479 -0.058868
v -0.020103 -0.026479 -0.059372
v -0.020104 -0.026479 -0.059924
v -0.020328 -0.026479 -0.060429
vn -0.2320 0.9355 0.2663
vn -0.2321 0.9355 0.2663
vn -0.6047 0.7512 0.2647
vn -0.6046 0.7512 0.2647
vn -0.8729 0.4369 0.2173
vn -0.8729 0.4368 0.2173
vn -0.9901 0.0471 0.1323
vn -0.9901 0.0472 0.1324
vn -0.9361 -0.3508 0.0245
vn -0.9361 -0.3509 0.0244
vn -0.7202 -0.6882 -0.0876
vn -0.7203 -0.6881 -0.0876
vn -0.3801 -0.9064 -0.1845
vn -0.3799 -0.9064 -0.1846
vn 0.0263 -0.9680 -0.2496
vn 0.0261 -0.9680 -0.2496
vn 0.4277 -0.8622 -0.2715
vn 0.7553 -0.6073 -0.2464
vn 0.9523 -0.2474 -0.1787
vn 0.9523 -0.2475 -0.1787
vn 0.9846 0.1552 -0.0802
vn 0.8466 0.5312 0.0323
vn 0.5625 0.8150 0.1391
vn 0.1808 0.9582 0.2219
vn -0.2457 0.9572 0.1529
vn -0.2454 0.9573 0.1528
vn -0.6159 0.7691 0.1705
vn -0.6158 0.7693 0.1704
vn -0.8799 0.4480 0.1586
vn -0.8798 0.4482 0.1585
vn -0.9916 0.0494 0.1193
vn -0.9916 0.0496 0.1193
vn -0.9319 -0.3579 0.0594
vn -0.9320 -0.3575 0.0593
vn -0.7110 -0.7031 -0.0108
vn -0.7112 -0.7029 -0.0109
vn -0.3673 -0.9267 -0.0791
vn -0.3677 -0.9266 -0.0792
vn 0.0400 -0.9902 -0.1338
vn 0.0399 -0.9902 -0.1338
vn 0.4405 -0.8824 -0.1652
vn 0.4401 -0.8826 -0.1653
vn 0.7646 -0.6222 -0.1681
vn 0.7645 -0.6223 -0.1682
vn 0.9567 -0.2542 -0.1419
vn 0.9566 -0.2545 -0.1420
vn 0.9833 0.1577 -0.0912
vn 0.9833 0.1573 -0.0914
vn 0.8399 0.5422 -0.0248
vn 0.5511 0.8332 0.0461
vn 0.5515 0.8329 0.0459
vn 0.1674 0.9799 0.1088
vn 0.1675 0.9799 0.1088
vn -0.2763 0.9541 -0.1159
vn -0.2763 0.9540 -0.1159
vn -0.6406 0.7665 -0.0455
vn -0.6405 0.7666 -0.0456
vn -0.8942 0.4465 0.0327
vn -0.9932 0.0493 0.1053
vn -0.9932 0.0492 0.1054
vn -0.9205 -0.3566 0.1598
vn -0.9204 -0.3567 0.1599
vn -0.6886 -0.7007 0.1866
vn -0.3376 -0.9237 0.1812
vn -0.3377 -0.9237 0.1811
vn 0.0717 -0.9869 0.1444
vn 0.0716 -0.9869 0.1443
vn 0.4687 -0.8795 0.0826
vn 0.4686 -0.8795 0.0826
vn 0.7845 -0.6201 0.0065
vn 0.9648 -0.2534 -0.0706
vn 0.9783 0.1570 -0.1356
vn 0.9782 0.1572 -0.1355
vn 0.8225 0.5405 -0.1770
vn 0.8226 0.5403 -0.1771
vn 0.5246 0.8303 -0.1880
vn 0.5244 0.8305 -0.1879
vn 0.1361 0.9766 -0.1663
vn -0.3043 0.8806 -0.3633
vn -0.3045 0.8806 -0.3632
vn -0.6632 0.7075 -0.2442
vn -0.9073 0.4121 -0.0830
vn -0.9073 0.4122 -0.0830
vn -0.9947 0.0453 0.0927
vn -0.9947 0.0455 0.0926
vn -0.9100 -0.3291 0.2522
vn -0.6680 -0.6467 0.3681
vn -0.6680 -0.6468 0.3682
vn -0.3104 -0.8525 0.4205
vn -0.3104 -0.8526 0.4205
vn 0.1009 -0.9109 0.4001
vn 0.1008 -0.9109 0.4001
vn 0.4944 -0.8119 0.3105
vn 0.4946 -0.8118 0.3105
vn 0.8028 -0.5723 0.1673
vn 0.9723 -0.2338 -0.0050
vn 0.9736 0.1450 -0.1762
vn 0.9736 0.1449 -0.1762
vn 0.8066 0.4989 -0.3171
vn 0.5001 0.7664 -0.4031
vn 0.1072 0.9014 -0.4194
vn 0.1074 0.9014 -0.4195
vn -0.3282 0.7508 -0.5732
vn -0.6824 0.6032 -0.4129
vn -0.9185 0.3514 -0.1812
vn -0.9185 0.3514 -0.1813
vn -0.9959 0.0388 0.0817
vn -0.9959 0.0387 0.0819
vn -0.9010 -0.2807 0.3308
vn -0.9011 -0.2806 0.3306
vn -0.6505 -0.5514 0.5223
vn -0.6504 -0.5514 0.5224
vn -0.2873 -0.7269 0.6238
vn 0.1254 -0.7767 0.6173
vn 0.1255 -0.7766 0.6173
vn 0.5167 -0.6921 0.5041
vn 0.5165 -0.6922 0.5041
vn 0.8183 -0.4880 0.3038
vn 0.8183 -0.4880 0.3037
vn 0.9786 -0.1994 0.0509
vn 0.9786 -0.1993 0.0508
vn 0.9696 0.1238 -0.2109
vn 0.9697 0.1236 -0.2108
vn 0.7930 0.4253 -0.4361
vn 0.4794 0.6534 -0.5859
vn 0.4793 0.6534 -0.5859
vn 0.0827 0.7686 -0.6344
vn -0.3472 0.5759 -0.7401
vn -0.6976 0.4627 -0.5470
vn -0.6977 0.4627 -0.5470
vn -0.9274 0.2696 -0.2594
vn -0.9274 0.2695 -0.2593
vn -0.9969 0.0297 0.0733
vn -0.9969 0.0298 0.0731
vn -0.8940 -0.2153 0.3930
vn -0.8939 -0.2153 0.3932
vn -0.6364 -0.4230 0.6450
vn -0.6366 -0.4230 0.6449
vn -0.2690 -0.5576 0.7853
vn -0.2689 -0.5576 0.7853
vn 0.1452 -0.5958 0.7899
vn 0.1450 -0.5958 0.7899
vn 0.5341 -0.5310 0.6579
vn 0.5342 -0.5309 0.6579
vn 0.8307 -0.3743 0.4121
vn 0.8306 -0.3744 0.4122
vn 0.9836 -0.1531 0.0952
vn 0.9836 -0.1530 0.0952
vn 0.9665 0.0950 -0.2385
vn 0.7823 0.3262 -0.5306
vn 0.7823 0.3263 -0.5306
vn 0.4629 0.5012 -0.7311
vn 0.0632 0.5896 -0.8052
vn -0.3607 0.3635 -0.8589
vn -0.7084 0.2920 -0.6425
vn -0.7085 0.2920 -0.6425
vn -0.9338 0.1701 -0.3149
vn -0.9337 0.1701 -0.3150
vn -0.9976 0.0187 0.0670
vn -0.9976 0.0187 0.0671
vn -0.8889 -0.1358 0.4375
vn -0.8889 -0.1358 0.4374
vn -0.6265 -0.2670 0.7323
vn -0.2558 -0.3519 0.9004
vn -0.2559 -0.3519 0.9004
vn 0.1592 -0.3760 0.9128
vn 0.5465 -0.3351 0.7675
vn 0.8395 -0.2362 0.4893
vn 0.9872 -0.0966 0.1268
vn 0.9643 0.0599 -0.2579
vn 0.9643 0.0600 -0.2581
vn 0.7747 0.2059 -0.5979
vn 0.4509 0.3164 -0.8346
vn 0.4511 0.3163 -0.8345
vn 0.0495 0.3721 -0.9269
vn 0.0493 0.3721 -0.9269
vn -0.3679 0.1234 -0.9217
vn -0.3679 0.1234 -0.9216
vn -0.7142 0.0992 -0.6928
vn -0.7142 0.0992 -0.6929
vn -0.9371 0.0578 -0.3443
vn -0.9979 0.0064 0.0639
vn -0.9979 0.0063 0.0638
vn -0.8863 -0.0461 0.4609
vn -0.8862 -0.0461 0.4609
vn -0.6213 -0.0907 0.7783
vn -0.2489 -0.1195 0.9611
vn 0.1665 -0.1277 0.9777
vn 0.1666 -0.1277 0.9777
vn 0.5531 -0.1138 0.8253
vn 0.8441 -0.0802 0.5301
vn 0.8442 -0.0802 0.5300
vn 0.9891 -0.0328 0.1435
vn 0.9631 0.0203 -0.2684
vn 0.9631 0.0203 -0.2683
vn 0.7706 0.0699 -0.6334
vn 0.7706 0.0699 -0.6335
vn 0.4448 0.1074 -0.8892
vn 0.4447 0.1074 -0.8892
vn 0.0421 0.1263 -0.9911
vn 0.0422 0.1263 -0.9911
vn -0.3686 -0.0000 -0.9296
vn -0.3688 -0.0000 -0.9295
vn -0.7151 -0.0000 -0.6990
vn -0.7150 -0.0000 -0.6992
vn -0.9375 -0.0000 -0.3480
vn -0.9980 -0.0000 0.0635
vn -0.8859 -0.0000 0.4638
vn -0.6206 -0.0000 0.7841
vn -0.2480 -0.0000 0.9688
vn 0.1674 -0.0000 0.9859
vn 0.5539 -0.0000 0.8326
vn 0.8446 -0.0000 0.5354
vn 0.8447 -0.0000 0.5352
vn 0.9894 -0.0000 0.1454
vn 0.9893 -0.0000 0.1456
vn 0.9629 -0.0000 -0.2697
vn 0.7701 -0.0000 -0.6379
vn 0.4440 -0.0000 -0.8960
vn 0.4441 -0.0000 -0.8960
vn 0.0412 -0.0000 -0.9992
vn 0.0412 -0.0000 -0.9991
vn -0.3679 -0.1234 -0.9216
vn -0.3677 -0.1235 -0.9217
vn -0.7142 -0.0992 -0.6929
vn -0.7144 -0.0991 -0.6927
vn -0.9371 -0.0578 -0.3443
vn -0.9371 -0.0578 -0.3444
vn -0.9979 -0.0064 0.0638
vn -0.9979 -0.0063 0.0639
vn -0.8862 0.0462 0.4609
vn -0.8863 0.0461 0.4608
vn -0.6211 0.0907 0.7784
vn -0.6213 0.0906 0.7783
vn -0.2491 0.1194 0.9611
vn -0.2489 0.1195 0.9611
vn 0.1666 0.1277 0.9777
vn 0.1665 0.1277 0.9777
vn 0.5531 0.1138 0.8253
vn 0.8442 0.0802 0.5300
vn 0.8440 0.0802 0.5303
vn 0.9891 0.0327 0.1435
vn 0.9891 0.0328 0.1433
vn 0.9631 -0.0203 -0.2683
vn 0.9631 -0.0203 -0.2684
vn 0.7706 -0.0699 -0.6335
vn 0.7706 -0.0699 -0.6334
vn 0.4449 -0.1074 -0.8891
vn 0.4448 -0.1074 -0.8892
vn 0.0420 -0.1263 -0.9911
vn 0.0422 -0.1263 -0.9911
vn -0.3608 -0.3634 -0.8589
vn -0.3608 -0.3635 -0.8589
vn -0.7084 -0.2920 -0.6426
vn -0.7084 -0.2920 -0.6425
vn -0.9338 -0.1701 -0.3149
vn -0.9337 -0.1701 -0.3150
vn -0.9976 -0.0187 0.0671
vn -0.9976 -0.0188 0.0670
vn -0.8889 0.1359 0.4375
vn -0.8889 0.1358 0.4375
vn -0.6265 0.2670 0.7323
vn -0.6264 0.2670 0.7324
vn -0.2559 0.3519 0.9004
vn -0.2560 0.3518 0.9004
vn 0.1591 0.3760 0.9129
vn 0.1593 0.3760 0.9128
vn 0.5465 0.3351 0.7675
vn 0.8395 0.2362 0.4893
vn 0.9872 0.0966 0.1269
vn 0.9872 0.0966 0.1268
vn 0.9643 -0.0599 -0.2580
vn 0.9643 -0.0599 -0.2579
vn 0.7746 -0.2059 -0.5980
vn 0.7747 -0.2059 -0.5979
vn 0.4511 -0.3163 -0.8345
vn 0.0495 -0.3721 -0.9269
vn 0.0493 -0.3721 -0.9269
vn -0.3473 -0.5759 -0.7401
vn -0.3472 -0.5759 -0.7401
vn -0.6976 -0.4628 -0.5470
vn -0.9274 -0.2695 -0.2593
vn -0.9969 -0.0298 0.0731
vn -0.9969 -0.0296 0.0732
vn -0.8939 0.2154 0.3932
vn -0.8940 0.2152 0.3931
vn -0.6365 0.4230 0.6450
vn -0.6364 0.4231 0.6450
vn -0.2691 0.5576 0.7853
vn -0.2690 0.5576 0.7853
vn 0.1452 0.5958 0.7899
vn 0.5341 0.5310 0.6579
vn 0.5340 0.5310 0.6580
vn 0.8307 0.3743 0.4122
vn 0.8308 0.3743 0.4120
vn 0.9836 0.1530 0.0952
vn 0.9836 0.1530 0.0953
vn 0.9665 -0.0949 -0.2383
vn 0.9665 -0.0949 -0.2385
vn 0.7822 -0.3263 -0.5307
vn 0.7823 -0.3263 -0.5307
vn 0.4627 -0.5013 -0.7312
vn 0.4629 -0.5013 -0.7311
vn 0.0634 -0.5896 -0.8052
vn 0.0633 -0.5896 -0.8052
vn -0.3282 -0.7508 -0.5732
vn -0.3283 -0.7508 -0.5732
vn -0.6824 -0.6032 -0.4129
vn -0.6823 -0.6033 -0.4129
vn -0.9185 -0.3514 -0.1813
vn -0.9186 -0.3513 -0.1812
vn -0.9959 -0.0386 0.0818
vn -0.9959 -0.0388 0.0818
vn -0.9011 0.2805 0.3306
vn -0.9010 0.2808 0.3307
vn -0.6503 0.5515 0.5224
vn -0.6505 0.5514 0.5224
vn -0.2872 0.7269 0.6238
vn -0.2874 0.7268 0.6238
vn 0.1254 0.7766 0.6174
vn 0.1255 0.7767 0.6173
vn 0.5166 0.6921 0.5041
vn 0.8183 0.4880 0.3038
vn 0.8183 0.4879 0.3037
vn 0.9786 0.1993 0.0508
vn 0.9786 0.1994 0.0509
vn 0.9697 -0.1236 -0.2108
vn 0.9697 -0.1237 -0.2108
vn 0.7930 -0.4254 -0.4361
vn 0.4793 -0.6534 -0.5859
vn 0.4793 -0.6535 -0.5859
vn 0.0827 -0.7686 -0.6344
vn 0.0828 -0.7686 -0.6344
vn -0.3042 -0.8806 -0.3633
vn -0.3043 -0.8806 -0.3633
vn -0.6633 -0.7074 -0.2442
vn -0.6632 -0.7075 -0.2442
vn -0.9073 -0.4121 -0.0830
vn -0.9073 -0.4122 -0.0830
vn -0.9947 -0.0455 0.0926
vn -0.9947 -0.0453 0.0926
vn -0.9100 0.3292 0.2522
vn -0.9101 0.3290 0.2522
vn -0.6679 0.6468 0.3682
vn -0.3103 0.8526 0.4205
vn 0.1008 0.9109 0.4001
vn 0.1007 0.9109 0.4001
vn 0.4944 0.8118 0.3106
vn 0.4946 0.8118 0.3105
vn 0.8029 0.5722 0.1672
vn 0.8028 0.5723 0.1673
vn 0.9723 0.2338 -0.0049
vn 0.9736 -0.1449 -0.1762
vn 0.9736 -0.1450 -0.1763
vn 0.8065 -0.4989 -0.3172
vn 0.8066 -0.4989 -0.3171
vn 0.5003 -0.7663 -0.4031
vn 0.5001 -0.7664 -0.4032
vn 0.1072 -0.9014 -0.4195
vn -0.2761 -0.9541 -0.1160
vn -0.6406 -0.7665 -0.0455
vn -0.6407 -0.7664 -0.0455
vn -0.8942 -0.4464 0.0327
vn -0.8942 -0.4465 0.0327
vn -0.9932 -0.0494 0.1054
vn -0.9932 -0.0493 0.1054
vn -0.9204 0.3567 0.1598
vn -0.9205 0.3566 0.1598
vn -0.6886 0.7007 0.1866
vn -0.3376 0.9237 0.1811
vn 0.0716 0.9869 0.1443
vn 0.4686 0.8795 0.0825
vn 0.4685 0.8796 0.0826
vn 0.7845 0.6201 0.0066
vn 0.7846 0.6200 0.0065
vn 0.9648 0.2534 -0.0707
vn 0.9648 0.2534 -0.0706
vn 0.9782 -0.1572 -0.1356
vn 0.9783 -0.1570 -0.1355
vn 0.8225 -0.5405 -0.1770
vn 0.8225 -0.5405 -0.1771
vn 0.5246 -0.8304 -0.1880
vn 0.5247 -0.8303 -0.1879
vn 0.1359 -0.9767 -0.1663
vn -0.2454 -0.9573 0.1529
vn -0.2456 -0.9573 0.1528
vn -0.6158 -0.7692 0.1705
vn -0.6161 -0.7690 0.1704
vn -0.8798 -0.4481 0.1586
vn -0.8799 -0.4479 0.1585
vn -0.9916 -0.0495 0.1193
vn -0.9320 0.3575 0.0595
vn -0.9319 0.3579 0.0593
vn -0.7113 0.7028 -0.0107
vn -0.7110 0.7031 -0.0109
vn -0.3675 0.9267 -0.0791
vn -0.3673 0.9267 -0.0792
vn 0.0397 0.9902 -0.1337
vn 0.0400 0.9902 -0.1338
vn 0.4403 0.8825 -0.1652
vn 0.4404 0.8824 -0.1653
vn 0.7645 0.6223 -0.1681
vn 0.7646 0.6222 -0.1682
vn 0.9566 0.2544 -0.1420
vn 0.9567 0.2542 -0.1420
vn 0.9833 -0.1573 -0.0912
vn 0.9833 -0.1577 -0.0913
vn 0.8400 -0.5420 -0.0248
vn 0.8398 -0.5423 -0.0248
vn 0.5515 -0.8329 0.0460
vn 0.5512 -0.8331 0.0460
vn 0.1675 -0.9798 0.1088
vn 0.1672 -0.9799 0.1088
vn -0.2319 -0.9353 0.2674
vn -0.2320 -0.9353 0.2674
vn -0.6048 -0.7509 0.2653
vn -0.6047 -0.7509 0.2653
vn -0.8728 -0.4370 0.2175
vn -0.8729 -0.4368 0.2175
vn -0.9901 -0.0472 0.1320
vn -0.9901 -0.0470 0.1319
vn -0.9362 0.3508 0.0236
vn -0.9362 0.3507 0.0237
vn -0.7204 0.6878 -0.0887
vn -0.3799 0.9062 -0.1858
vn -0.3800 0.9061 -0.1858
vn 0.0259 0.9677 -0.2507
vn 0.0260 0.9677 -0.2507
vn 0.4278 0.8619 -0.2723
vn 0.4277 0.8619 -0.2723
vn 0.7552 0.6072 -0.2468
vn 0.7553 0.6072 -0.2468
vn 0.9523 0.2475 -0.1786
vn 0.9523 0.2473 -0.1786
vn 0.9847 -0.1552 -0.0796
vn 0.9847 -0.1551 -0.0796
vn 0.8468 -0.5308 0.0332
vn 0.8468 -0.5309 0.0333
vn 0.5625 -0.8148 0.1403
vn 0.1809 -0.9579 0.2231
vn 0.1168 -0.2446 0.9626
vn 0.1170 -0.2451 0.9624
vn 0.1168 -0.2449 0.9625
vn 0.1169 -0.2449 0.9625
vn 0.1170 -0.2450 0.9624
vn 0.1169 -0.2450 0.9624
vn 0.1171 -0.2449 0.9624
vn 0.1168 -0.2451 0.9624
vn 0.1171 -0.2449 0.9625
vn 0.1171 -0.2448 0.9625
vn 0.1169 -0.2453 0.9624
vn 0.1163 0.2457 0.9623
vn 0.1167 0.2465 0.9621
vn 0.1165 0.2461 0.9622
vn 0.1163 0.2460 0.9623
vn 0.1166 0.2462 0.9622
vn 0.1165 0.2462 0.9622
vn 0.1166 0.2461 0.9622
vn 0.1164 0.2463 0.9622
vn 0.1167 0.2460 0.9622
vn -0.2343 0.9295 0.2848
vn -0.2344 0.9295 0.2848
vn -0.6070 0.7452 0.2760
vn -0.6069 0.7453 0.2760
vn -0.8747 0.4322 0.2195
vn -0.8747 0.4321 0.2195
vn -0.9912 0.0442 0.1250
vn -0.9363 -0.3512 0.0090
vn -0.9362 -0.3513 0.0089
vn -0.7195 -0.6860 -0.1087
vn -0.7195 -0.6859 -0.1086
vn -0.3783 -0.9021 -0.2075
vn 0.0284 -0.9623 -0.2705
vn 0.4301 -0.8561 -0.2867
vn 0.4300 -0.8561 -0.2867
vn 0.7574 -0.6019 -0.2533
vn 0.7574 -0.6018 -0.2533
vn 0.9538 -0.2435 -0.1761
vn 0.9852 0.1570 -0.0685
vn 0.9853 0.1568 -0.0685
vn 0.8464 0.5301 0.0509
vn 0.8463 0.5303 0.0510
vn 0.5611 0.8118 0.1616
vn 0.5612 0.8117 0.1616
vn 0.1787 0.9531 0.2443
vn 0.1788 0.9531 0.2443
vn -0.1090 0.2658 -0.9578
vn -0.1090 0.2660 -0.9578
vn -0.1091 0.2659 -0.9578
vn -0.1088 0.2660 -0.9578
vn -0.1089 0.2660 -0.9578
vn -0.1091 0.2661 -0.9578
vn -0.1088 0.2658 -0.9579
vn -0.1091 0.2663 -0.9577
vn -0.1088 0.2656 -0.9579
vn 0.1088 -0.2659 0.9578
vn 0.1090 -0.2659 0.9578
vn 0.1089 -0.2660 0.9578
vn 0.1090 -0.2660 0.9578
vn 0.1091 -0.2659 0.9578
vn 0.1091 -0.2661 0.9578
vn 0.1088 -0.2658 0.9579
vn 0.1088 -0.2660 0.9578
vn -0.1091 0.2662 -0.9577
vn -0.1088 0.2659 -0.9578
vn -0.1092 0.2661 -0.9577
vn -0.1087 0.2660 -0.9578
vn -0.1089 0.2659 -0.9578
vn -0.1091 0.2658 -0.9578
vn -0.1088 0.2662 -0.9578
vn -0.1090 0.2659 -0.9578
vn -0.1088 0.2663 -0.9577
vn -0.1089 0.2658 -0.9578
vn -0.1089 0.2658 -0.9579
vn -0.1090 0.2661 -0.9578
vn -0.1089 0.2661 -0.9578
vn 0.1089 -0.2659 0.9578
vn 0.1088 -0.2661 0.9578
vn 0.1091 -0.2660 0.9578
vn 0.1087 -0.2658 0.9579
vn 0.1088 -0.2657 0.9579
vn 0.1087 -0.2660 0.9578
vn 0.1090 -0.2661 0.9578
vn -0.0913 0.4786 0.8733
vn -0.0916 0.4791 0.8730
vn -0.2437 0.8505 -0.4662
vn -0.2437 0.8505 -0.4661
vn -0.3574 0.3465 0.8673
vn -0.3576 0.3467 0.8671
vn -0.5102 0.7188 -0.4723
vn -0.5100 0.7186 -0.4728
vn -0.5491 0.1229 0.8267
vn -0.5487 0.1227 0.8270
vn -0.7013 0.4948 -0.5132
vn -0.7016 0.4951 -0.5125
vn -0.6324 -0.1544 0.7591
vn -0.7850 0.2176 -0.5800
vn -0.7847 0.2176 -0.5805
vn -0.5933 -0.4371 0.6760
vn -0.5931 -0.4370 0.6762
vn -0.7454 -0.0651 -0.6635
vn -0.7459 -0.0653 -0.6629
vn -0.4381 -0.6762 0.5923
vn -0.4382 -0.6764 0.5920
vn -0.5907 -0.3047 -0.7471
vn -0.5908 -0.3048 -0.7471
vn -0.1939 -0.8306 0.5221
vn -0.1940 -0.8308 0.5217
vn -0.3467 -0.4594 -0.8178
vn -0.3467 -0.4595 -0.8177
vn 0.0965 -0.8736 0.4770
vn 0.0965 -0.8735 0.4772
vn -0.0558 -0.5026 -0.8627
vn -0.0558 -0.5024 -0.8628
vn 0.3836 -0.7979 0.4649
vn 0.3835 -0.7978 0.4652
vn 0.2314 -0.4265 -0.8744
vn 0.2313 -0.4259 -0.8747
vn 0.6177 -0.6162 0.4887
vn 0.6175 -0.6162 0.4889
vn 0.4652 -0.2442 -0.8508
vn 0.4653 -0.2443 -0.8508
vn 0.7581 -0.3600 0.5438
vn 0.7582 -0.3600 0.5437
vn 0.6055 0.0119 -0.7957
vn 0.6054 0.0120 -0.7958
vn 0.7805 -0.0740 0.6208
vn 0.7806 -0.0739 0.6207
vn 0.6279 0.2983 -0.7189
vn 0.6283 0.2981 -0.7186
vn 0.6813 0.1932 0.7061
vn 0.6811 0.1930 0.7063
vn 0.5290 0.5649 -0.6332
vn 0.5287 0.5650 -0.6335
vn 0.4773 0.3940 0.7855
vn 0.4774 0.3945 0.7852
vn 0.3248 0.7663 -0.5544
vn 0.3253 0.7665 -0.5537
vn 0.2039 0.4958 0.8442
vn 0.2041 0.4949 0.8446
vn 0.0518 0.8676 -0.4945
vn 0.0516 0.8673 -0.4950
vn -0.2344 -0.9295 0.2848
vn -0.2343 -0.9295 0.2848
vn -0.6070 -0.7453 0.2760
vn -0.8747 -0.4322 0.2195
vn -0.9912 -0.0442 0.1250
vn -0.9363 0.3512 0.0090
vn -0.9362 0.3513 0.0089
vn -0.7195 0.6860 -0.1087
vn -0.7195 0.6860 -0.1086
vn -0.3783 0.9021 -0.2075
vn 0.0284 0.9623 -0.2705
vn 0.4301 0.8561 -0.2866
vn 0.7574 0.6019 -0.2533
vn 0.9538 0.2435 -0.1761
vn 0.9852 -0.1569 -0.0685
vn 0.8464 -0.5302 0.0510
vn 0.5611 -0.8118 0.1616
vn 0.5612 -0.8117 0.1616
vn 0.1789 -0.9531 0.2443
vn 0.1788 -0.9531 0.2443
vn -0.1090 -0.2658 -0.9578
vn -0.1090 -0.2660 -0.9578
vn -0.1091 -0.2659 -0.9578
vn -0.1088 -0.2660 -0.9578
vn -0.1089 -0.2660 -0.9578
vn -0.1091 -0.2661 -0.9578
vn -0.1089 -0.2659 -0.9578
vn -0.1088 -0.2659 -0.9578
vn -0.1091 -0.2663 -0.9577
vn -0.1088 -0.2655 -0.9579
vn 0.1087 0.2654 0.9580
vn 0.1090 0.2660 0.9578
vn 0.1090 0.2659 0.9578
vn 0.1089 0.2660 0.9578
vn 0.1091 0.2659 0.9578
vn 0.1091 0.2661 0.9578
vn 0.1088 0.2658 0.9579
vn 0.1091 0.2662 0.9577
vn -0.1091 -0.2662 -0.9577
vn -0.1086 -0.2658 -0.9579
vn -0.1092 -0.2661 -0.9577
vn -0.1086 -0.2660 -0.9578
vn -0.1090 -0.2659 -0.9578
vn -0.1088 -0.2662 -0.9578
vn -0.1088 -0.2663 -0.9577
vn -0.1090 -0.2661 -0.9578
vn -0.1089 -0.2661 -0.9578
vn -0.1089 -0.2662 -0.9578
vn 0.1089 0.2659 0.9578
vn 0.1088 0.2660 0.9578
vn 0.1088 0.2661 0.9578
vn 0.1091 0.2660 0.9578
vn 0.1089 0.2658 0.9578
vn 0.1089 0.2661 0.9578
vn 0.1089 0.2658 0.9579
vn 0.1091 0.2658 0.9578
vn 0.1090 0.2661 0.9578
vn 0.1090 0.2658 0.9578
vn 0.1088 0.2659 0.9578
vn 0.1090 0.2662 0.9577
vn 0.1089 0.2657 0.9579
vn -0.0913 -0.4782 0.8735
vn -0.0914 -0.4783 0.8734
vn -0.2437 -0.8501 -0.4669
vn -0.2437 -0.8506 -0.4660
vn -0.3574 -0.3465 0.8673
vn -0.3577 -0.3467 0.8671
vn -0.5103 -0.7188 -0.4722
vn -0.5104 -0.7192 -0.4714
vn -0.5491 -0.1229 0.8267
vn -0.5486 -0.1228 0.8270
vn -0.7021 -0.4951 -0.5118
vn -0.7017 -0.4949 -0.5125
vn -0.6329 0.1543 0.7587
vn -0.6323 0.1543 0.7592
vn -0.7850 -0.2176 -0.5800
vn -0.7847 -0.2176 -0.5805
vn -0.5933 0.4371 0.6760
vn -0.5935 0.4372 0.6757
vn -0.7454 0.0651 -0.6634
vn -0.7459 0.0653 -0.6629
vn -0.4383 0.6764 0.5918
vn -0.4383 0.6764 0.5919
vn -0.5907 0.3047 -0.7471
vn -0.5908 0.3048 -0.7471
vn -0.1942 0.8309 0.5215
vn -0.1943 0.8311 0.5211
vn -0.3467 0.4594 -0.8178
vn -0.3466 0.4591 -0.8180
vn 0.0965 0.8740 0.4762
vn 0.0964 0.8739 0.4765
vn -0.0559 0.5022 -0.8630
vn -0.0559 0.5020 -0.8631
vn 0.3840 0.7983 0.4639
vn 0.3836 0.7981 0.4646
vn 0.2313 0.4262 -0.8746
vn 0.2312 0.4259 -0.8747
vn 0.6179 0.6164 0.4881
vn 0.6180 0.6165 0.4879
vn 0.4652 0.2442 -0.8508
vn 0.4651 0.2441 -0.8509
vn 0.7578 0.3601 0.5441
vn 0.7583 0.3600 0.5435
vn 0.6055 -0.0119 -0.7957
vn 0.6054 -0.0120 -0.7958
vn 0.7804 0.0738 0.6209
vn 0.7802 0.0739 0.6211
vn 0.6281 -0.2982 -0.7187
vn 0.6283 -0.2981 -0.7186
vn 0.6814 -0.1932 0.7059
vn 0.6812 -0.1928 0.7062
vn 0.5290 -0.5650 -0.6332
vn 0.5286 -0.5651 -0.6335
vn 0.4773 -0.3940 0.7855
vn 0.4774 -0.3948 0.7850
vn 0.3248 -0.7663 -0.5544
vn 0.3253 -0.7665 -0.5537
vn 0.2040 -0.4951 0.8445
vn 0.2041 -0.4949 0.8446
vn 0.0519 -0.8676 -0.4945
vn 0.0514 -0.8670 -0.4957
vn 0.3087 -0.0000 -0.9512
vn 0.6689 -0.0000 -0.7434
vn 0.9134 -0.0000 -0.4070
vn 1.0000 -0.0000 -0.0002
vn 0.9137 -0.0000 0.4063
vn 0.6692 -0.0000 0.7431
vn 0.3094 -0.0000 0.9509
vn -0.1043 -0.0000 0.9945
vn -0.4998 -0.0000 0.8661
vn -0.8089 -0.0000 0.5880
vn -0.9781 -0.0000 0.2082
vn -0.9782 -0.0000 -0.2076
vn -0.8092 -0.0000 -0.5876
vn -0.5003 -0.0000 -0.8658
vn -0.1048 -0.0000 -0.9945
vn -0.0000 1.0000 -0.0000
vn -0.0000 -1.0000 -0.0000
vn 0.2207 -0.6991 -0.6801
vn 0.2207 0.6991 -0.6801
vn 0.4782 -0.6992 -0.5315
vn 0.4783 -0.6991 -0.5315
vn 0.4783 0.6991 -0.5315
vn 0.4782 0.6992 -0.5315
vn 0.6530 -0.6993 -0.2909
vn 0.6531 -0.6992 -0.2909
vn 0.6531 0.6992 -0.2910
vn 0.6530 0.6993 -0.2909
vn 0.7151 -0.6990 -0.0001
vn 0.7148 -0.6994 -0.0003
vn 0.7148 0.6993 -0.0001
vn 0.7151 0.6990 -0.0003
vn 0.6531 -0.6994 0.2904
vn 0.6534 -0.6989 0.2908
vn 0.6535 0.6989 0.2906
vn 0.6530 0.6994 0.2906
vn 0.4784 -0.6993 0.5312
vn 0.4783 -0.6994 0.5310
vn 0.4783 0.6994 0.5311
vn 0.4785 0.6993 0.5311
vn 0.2211 -0.6993 0.6797
vn 0.2211 -0.6993 0.6798
vn 0.2212 0.6992 0.6798
vn 0.2211 0.6994 0.6797
vn -0.0746 -0.6991 0.7111
vn -0.0744 -0.6994 0.7109
vn -0.0745 0.6994 0.7109
vn -0.0745 0.6991 0.7111
vn -0.3573 -0.6992 0.6192
vn -0.3574 -0.6991 0.6193
vn -0.3573 0.6992 0.6193
vn -0.3573 0.6992 0.6192
vn -0.5785 -0.6990 0.4205
vn -0.5782 -0.6993 0.4204
vn -0.5783 0.6992 0.4203
vn -0.5784 0.6990 0.4206
vn -0.6992 -0.6992 0.1489
vn -0.6995 -0.6989 0.1488
vn -0.6995 0.6989 0.1489
vn -0.6992 0.6993 0.1488
vn -0.6994 -0.6991 -0.1484
vn -0.6993 -0.6993 -0.1483
vn -0.6993 0.6993 -0.1484
vn -0.6994 0.6991 -0.1484
vn -0.5785 -0.6992 -0.4201
vn -0.5786 -0.6991 -0.4202
vn -0.5786 0.6991 -0.4201
vn -0.5784 0.6992 -0.4201
vn -0.3577 -0.6993 -0.6190
vn -0.3577 -0.6992 -0.6190
vn -0.3577 0.6992 -0.6190
vn -0.3576 0.6993 -0.6190
vn -0.0749 -0.6990 -0.7112
vn -0.0750 -0.6992 -0.7110
vn -0.0749 0.6992 -0.7110
vn -0.0750 0.6990 -0.7112
vn 0.6692 -0.0000 0.7430
vn -0.9781 -0.0000 0.2083
vn 0.2208 0.6991 -0.6801
vn 0.6529 -0.6994 -0.2909
vn 0.6529 0.6994 -0.2908
vn 0.7148 -0.6993 -0.0003
vn -0.0746 -0.6991 0.7112
vn -0.0745 0.6991 0.7112
vn -0.3573 -0.6992 0.6193
vn -0.3573 0.6991 0.6193
vn -0.6992 -0.6993 0.1489
vn -0.6995 0.6989 0.1490
vn -0.6992 0.6993 0.1487
vn -0.6993 -0.6992 -0.1484
vn -0.6993 0.6992 -0.1484
vn -0.5786 0.6991 -0.4202
vn -0.5785 0.6992 -0.4201
s 0
f 1//1 2//1 3//1
f 3//2 4//2 1//2
f 4//3 3//3 5//3
f 5//4 6//4 4//4
f 6//5 5//5 7//5
f 7//6 8//6 6//6
f 8//7 7//7 9//7
f 9//8 10//8 8//8
f 10//9 9//9 11//9
f 11//10 12//10 10//10
f 12//11 11//11 13//11
f 13//12 14//12 12//12
f 14//13 13//13 15//13
f 15//14 16//14 14//14
f 16//15 15//15 17//15
f 17//16 18//16 16//16
f 18//17 17//17 19//17
f 19//17 20//17 18//17
f 20//18 19//18 21//18
f 21//18 22//18 20//18
f 22//19 21//19 23//19
f 23//20 24//20 22//20
f 24//21 23//21 25//21
f 25//21 26//21 24//21
f 26//22 25//22 27//22
f 27//22 28//22 26//22
f 28//23 27//23 29//23
f 29//23 30//23 28//23
f 30//24 29//24 2//24
f 2//24 1//24 30//24
f 2//25 31//25 32//25
f 32//26 3//26 2//26
f 3//27 32//27 33//27
f 33//28 5//28 3//28
f 5//29 33//29 34//29
f 34//30 7//30 5//30
f 7//31 34//31 35//31
f 35//32 9//32 7//32
f 9//33 35//33 36//33
f 36//34 11//34 9//34
f 11//35 36//35 37//35
f 37//36 13//36 11//36
f 13//37 37//37 38//37
f 38//38 15//38 13//38
f 15//39 38//39 39//39
f 39//40 17//40 15//40
f 17//41 39//41 40//41
f 40//42 19//42 17//42
f 19//43 40//43 41//43
f 41//44 21//44 19//44
f 21//45 41//45 42//45
f 42//46 23//46 21//46
f 23//47 42//47 43//47
f 43//48 25//48 23//48
f 25//49 43//49 44//49
f 44//49 27//49 25//49
f 27//50 44//50 45//50
f 45//51 29//51 27//51
f 29//52 45//52 31//52
f 31//53 2//53 29//53
f 31//54 46//54 47//54
f 47//55 32//55 31//55
f 32//56 47//56 48//56
f 48//57 33//57 32//57
f 33//58 48//58 49//58
f 49//58 34//58 33//58
f 34//59 49//59 50//59
f 50//60 35//60 34//60
f 35//61 50//61 51//61
f 51//62 36//62 35//62
f 36//63 51//63 52//63
f 52//63 37//63 36//63
f 37//64 52//64 53//64
f 53//65 38//65 37//65
f 38//66 53//66 54//66
f 54//67 39//67 38//67
f 39//68 54//68 55//68
f 55//69 40//69 39//69
f 40//70 55//70 56//70
f 56//70 41//70 40//70
f 41//71 56//71 57//71
f 57//71 42//71 41//71
f 42//72 57//72 58//72
f 58//73 43//73 42//73
f 43//74 58//74 59//74
f 59//75 44//75 43//75
f 44//76 59//76 60//76
f 60//77 45//77 44//77
f 45//78 60//78 46//78
f 46//78 31//78 45//78
f 46//79 61//79 62//79
f 62//80 47//80 46//80
f 47//81 62//81 63//81
f 63//81 48//81 47//81
f 48//82 63//82 64//82
f 64//83 49//83 48//83
f 49//84 64//84 65//84
f 65//85 50//85 49//85
f 50//86 65//86 66//86
f 66//86 51//86 50//86
f 51//87 66//87 67//87
f 67//88 52//88 51//88
f 52//89 67//89 68//89
f 68//90 53//90 52//90
f 53//91 68//91 69//91
f 69//92 54//92 53//92
f 54//93 69//93 70//93
f 70//94 55//94 54//94
f 55//95 70//95 71//95
f 71//95 56//95 55//95
f 56//96 71//96 72//96
f 72//96 57//96 56//96
f 57//97 72//97 73//97
f 73//98 58//98 57//98
f 58//99 73//99 74//99
f 74//99 59//99 58//99
f 59//100 74//100 75//100
f 75//100 60//100 59//100
f 60//101 75//101 61//101
f 61//102 46//102 60//102
f 61//103 76//103 77//103
f 77//103 62//103 61//103
f 62//104 77//104 78//104
f 78//104 63//104 62//104
f 63//105 78//105 79//105
f 79//106 64//106 63//106
f 64//107 79//107 80//107
f 80//108 65//108 64//108
f 65//109 80//109 81//109
f 81//110 66//110 65//110
f 66//111 81//111 82//111
f 82//112 67//112 66//112
f 67//113 82//113 83//113
f 83//113 68//113 67//113
f 68//114 83//114 84//114
f 84//115 69//115 68//115
f 69//116 84//116 85//116
f 85//117 70//117 69//117
f 70//118 85//118 86//118
f 86//119 71//119 70//119
f 71//120 86//120 87//120
f 87//121 72//121 71//121
f 72//122 87//122 88//122
f 88//123 73//123 72//123
f 73//124 88//124 89//124
f 89//124 74//124 73//124
f 74//125 89//125 90//125
f 90//126 75//126 74//126
f 75//127 90//127 76//127
f 76//127 61//127 75//127
f 76//128 91//128 92//128
f 92//128 77//128 76//128
f 77//129 92//129 93//129
f 93//130 78//130 77//130
f 78//131 93//131 94//131
f 94//132 79//132 78//132
f 79//133 94//133 95//133
f 95//134 80//134 79//134
f 80//135 95//135 96//135
f 96//136 81//136 80//136
f 81//137 96//137 97//137
f 97//138 82//138 81//138
f 82//139 97//139 98//139
f 98//140 83//140 82//140
f 83//141 98//141 99//141
f 99//142 84//142 83//142
f 84//143 99//143 100//143
f 100//144 85//144 84//144
f 85//145 100//145 101//145
f 101//146 86//146 85//146
f 86//147 101//147 102//147
f 102//148 87//148 86//148
f 87//149 102//149 103//149
f 103//149 88//149 87//149
f 88//150 103//150 104//150
f 104//151 89//151 88//151
f 89//152 104//152 105//152
f 105//152 90//152 89//152
f 90//153 105//153 91//153
f 91//153 76//153 90//153
f 91//154 106//154 107//154
f 107//154 92//154 91//154
f 92//155 107//155 108//155
f 108//156 93//156 92//156
f 93//157 108//157 109//157
f 109//158 94//158 93//158
f 94//159 109//159 110//159
f 110//160 95//160 94//160
f 95//161 110//161 111//161
f 111//162 96//162 95//162
f 96//163 111//163 112//163
f 112//163 97//163 96//163
f 97//164 112//164 113//164
f 113//165 98//165 97//165
f 98//166 113//166 114//166
f 114//166 99//166 98//166
f 99//167 114//167 115//167
f 115//167 100//167 99//167
f 100//168 115//168 116//168
f 116//168 101//168 100//168
f 101//169 116//169 117//169
f 117//169 102//169 101//169
f 102//170 117//170 118//170
f 118//171 103//171 102//171
f 103//172 118//172 119//172
f 119//172 104//172 103//172
f 104//173 119//173 120//173
f 120//174 105//174 104//174
f 105//175 120//175 106//175
f 106//176 91//176 105//176
f 106//177 121//177 122//177
f 122//178 107//178 106//178
f 107//179 122//179 123//179
f 123//180 108//180 107//180
f 108//181 123//181 124//181
f 124//181 109//181 108//181
f 109//182 124//182 125//182
f 125//183 110//183 109//183
f 110//184 125//184 126//184
f 126//185 111//185 110//185
f 111//186 126//186 127//186
f 127//186 112//186 111//186
f 112//187 127//187 128//187
f 128//187 113//187 112//187
f 113//188 128//188 129//188
f 129//189 114//189 113//189
f 114//190 129//190 130//190
f 130//190 115//190 114//190
f 115//191 130//191 131//191
f 131//192 116//192 115//192
f 116//193 131//193 132//193
f 132//193 117//193 116//193
f 117//194 132//194 133//194
f 133//195 118//195 117//195
f 118//196 133//196 134//196
f 134//197 119//197 118//197
f 119//198 134//198 135//198
f 135//199 120//199 119//199
f 120//200 135//200 121//200
f 121//201 106//201 120//201
f 121//202 136//202 137//202
f 137//203 122//203 121//203
f 122//204 137//204 138//204
f 138//205 123//205 122//205
f 123//206 138//206 139//206
f 139//206 124//206 123//206
f 124//207 139//207 140//207
f 140//207 125//207 124//207
f 125//208 140//208 141//208
f 141//208 126//208 125//208
f 126//209 141//209 142//209
f 142//209 127//209 126//209
f 127//210 142//210 143//210
f 143//210 128//210 127//210
f 128//211 143//211 144//211
f 144//211 129//211 128//211
f 129//212 144//212 145//212
f 145//212 130//212 129//212
f 130//213 145//213 146//213
f 146//214 131//214 130//214
f 131//215 146//215 147//215
f 147//216 132//216 131//216
f 132//217 147//217 148//217
f 148//217 133//217 132//217
f 133//218 148//218 149//218
f 149//218 134//218 133//218
f 134//219 149//219 150//219
f 150//220 135//220 134//220
f 135//221 150//221 136//221
f 136//222 121//222 135//222
f 136//223 151//223 152//223
f 152//224 137//224 136//224
f 137//225 152//225 153//225
f 153//226 138//226 137//226
f 138//227 153//227 154//227
f 154//228 139//228 138//228
f 139//229 154//229 155//229
f 155//230 140//230 139//230
f 140//231 155//231 156//231
f 156//232 141//232 140//232
f 141//233 156//233 157//233
f 157//234 142//234 141//234
f 142//235 157//235 158//235
f 158//236 143//236 142//236
f 143//237 158//237 159//237
f 159//238 144//238 143//238
f 144//239 159//239 160//239
f 160//239 145//239 144//239
f 145//240 160//240 161//240
f 161//241 146//241 145//241
f 146//242 161//242 162//242
f 162//243 147//243 146//243
f 147//244 162//244 163//244
f 163//245 148//245 147//245
f 148//246 163//246 164//246
f 164//247 149//247 148//247
f 149//248 164//248 165//248
f 165//249 150//249 149//249
f 150//250 165//250 151//250
f 151//251 136//251 150//251
f 151//252 166//252 167//252
f 167//253 152//253 151//253
f 152//254 167//254 168//254
f 168//255 153//255 152//255
f 153//256 168//256 169//256
f 169//257 154//257 153//257
f 154//258 169//258 170//258
f 170//259 155//259 154//259
f 155//260 170//260 171//260
f 171//261 156//261 155//261
f 156//262 171//262 172//262
f 172//263 157//263 156//263
f 157//264 172//264 173//264
f 173//265 158//265 157//265
f 158//266 173//266 174//266
f 174//267 159//267 158//267
f 159//268 174//268 175//268
f 175//268 160//268 159//268
f 160//269 175//269 176//269
f 176//269 161//269 160//269
f 161//270 176//270 177//270
f 177//271 162//271 161//271
f 162//272 177//272 178//272
f 178//273 163//273 162//273
f 163//274 178//274 179//274
f 179//275 164//275 163//275
f 164//276 179//276 180//276
f 180//276 165//276 164//276
f 165//277 180//277 166//277
f 166//278 151//278 165//278
f 166//279 181//279 182//279
f 182//280 167//280 166//280
f 167//281 182//281 183//281
f 183//281 168//281 167//281
f 168//282 183//282 184//282
f 184//282 169//282 168//282
f 169//283 184//283 185//283
f 185//284 170//284 169//284
f 170//285 185//285 186//285
f 186//286 171//286 170//286
f 171//287 186//287 187//287
f 187//288 172//288 171//288
f 172//289 187//289 188//289
f 188//290 173//290 172//290
f 173//291 188//291 189//291
f 189//291 174//291 173//291
f 174//292 189//292 190//292
f 190//293 175//293 174//293
f 175//294 190//294 191//294
f 191//295 176//295 175//295
f 176//296 191//296 192//296
f 192//297 177//297 176//297
f 177//298 192//298 193//298
f 193//299 178//299 177//299
f 178//300 193//300 194//300
f 194//301 179//301 178//301
f 179//302 194//302 195//302
f 195//303 180//303 179//303
f 180//304 195//304 181//304
f 181//305 166//305 180//305
f 181//306 196//306 197//306
f 197//307 182//307 181//307
f 182//308 197//308 198//308
f 198//309 183//309 182//309
f 183//310 198//310 199//310
f 199//311 184//311 183//311
f 184//312 199//312 200//312
f 200//313 185//313 184//313
f 185//314 200//314 201//314
f 201//315 186//315 185//315
f 186//316 201//316 202//316
f 202//317 187//317 186//317
f 187//318 202//318 203//318
f 203//319 188//319 187//319
f 188//320 203//320 204//320
f 204//321 189//321 188//321
f 189//322 204//322 205//322
f 205//322 190//322 189//322
f 190//323 205//323 206//323
f 206//324 191//324 190//324
f 191//325 206//325 207//325
f 207//326 192//326 191//326
f 192//327 207//327 208//327
f 208//328 193//328 192//328
f 193//329 208//329 209//329
f 209//329 194//329 193//329
f 194//330 209//330 210//330
f 210//331 195//331 194//331
f 195//332 210//332 196//332
f 196//333 181//333 195//333
f 196//334 211//334 212//334
f 212//335 197//335 196//335
f 197//336 212//336 213//336
f 213//337 198//337 197//337
f 198//338 213//338 214//338
f 214//339 199//339 198//339
f 199//340 214//340 215//340
f 215//341 200//341 199//341
f 200//342 215//342 216//342
f 216//343 201//343 200//343
f 201//344 216//344 217//344
f 217//344 202//344 201//344
f 202//345 217//345 218//345
f 218//345 203//345 202//345
f 203//346 218//346 219//346
f 219//347 204//347 203//347
f 204//348 219//348 220//348
f 220//349 205//349 204//349
f 205//350 220//350 221//350
f 221//351 206//351 205//351
f 206//352 221//352 222//352
f 222//352 207//352 206//352
f 207//353 222//353 223//353
f 223//354 208//354 207//354
f 208//355 223//355 224//355
f 224//356 209//356 208//356
f 209//357 224//357 225//357
f 225//358 210//358 209//358
f 210//359 225//359 211//359
f 211//359 196//359 210//359
f 211//360 226//360 227//360
f 227//360 212//360 211//360
f 212//361 227//361 228//361
f 228//362 213//362 212//362
f 213//363 228//363 229//363
f 229//364 214//364 213//364
f 214//365 229//365 230//365
f 230//366 215//366 214//366
f 215//367 230//367 231//367
f 231//368 216//368 215//368
f 216//369 231//369 232//369
f 232//369 217//369 216//369
f 217//370 232//370 233//370
f 233//370 218//370 217//370
f 218//371 233//371 234//371
f 234//371 219//371 218//371
f 219//372 234//372 235//372
f 235//373 220//373 219//373
f 220//374 235//374 236//374
f 236//375 221//375 220//375
f 221//376 236//376 237//376
f 237//377 222//377 221//377
f 222//378 237//378 238//378
f 238//379 223//379 222//379
f 223//380 238//380 239//380
f 239//381 224//381 223//381
f 224//382 239//382 240//382
f 240//383 225//383 224//383
f 225//384 240//384 226//384
f 226//384 211//384 225//384
f 226//385 241//385 242//385
f 242//386 227//386 226//386
f 227//387 242//387 243//387
f 243//388 228//388 227//388
f 228//389 243//389 244//389
f 244//390 229//390 228//390
f 229//391 244//391 245//391
f 245//391 230//391 229//391
f 230//392 245//392 246//392
f 246//393 231//393 230//393
f 231//394 246//394 247//394
f 247//395 232//395 231//395
f 232//396 247//396 248//396
f 248//397 233//397 232//397
f 233//398 248//398 249//398
f 249//399 234//399 233//399
f 234//400 249//400 250//400
f 250//401 235//401 234//401
f 235//402 250//402 251//402
f 251//403 236//403 235//403
f 236//404 251//404 252//404
f 252//405 237//405 236//405
f 237//406 252//406 253//406
f 253//407 238//407 237//407
f 238//408 253//408 254//408
f 254//409 239//409 238//409
f 239//410 254//410 255//410
f 255//411 240//411 239//411
f 240//412 255//412 241//412
f 241//413 226//413 240//413
f 241//414 256//414 257//414
f 257//415 242//415 241//415
f 242//416 257//416 258//416
f 258//417 243//417 242//417
f 243//418 258//418 259//418
f 259//419 244//419 243//419
f 244//420 259//420 260//420
f 260//421 245//421 244//421
f 245//422 260//422 261//422
f 261//423 246//423 245//423
f 246//424 261//424 262//424
f 262//424 247//424 246//424
f 247//425 262//425 263//425
f 263//426 248//426 247//426
f 248//427 263//427 264//427
f 264//428 249//428 248//428
f 249//429 264//429 265//429
f 265//430 250//430 249//430
f 250//431 265//431 266//431
f 266//432 251//432 250//432
f 251//433 266//433 267//433
f 267//434 252//434 251//434
f 252//435 267//435 268//435
f 268//436 253//436 252//436
f 253//437 268//437 269//437
f 269//438 254//438 253//438
f 254//439 269//439 270//439
f 270//439 255//439 254//439
f 255//440 270//440 256//440
f 256//440 241//440 255//440
f 4//441 6//441 1//441
f 6//442 8//442 1//442
f 8//443 10//443 1//443
f 10//444 12//444 1//444
f 12//445 14//445 1//445
f 14//445 16//445 1//445
f 16//445 18//445 1//445
f 18//446 20//446 1//446
f 20//447 22//447 1//447
f 22//448 24//448 1//448
f 24//449 26//449 1//449
f 26//450 28//450 1//450
f 28//451 30//451 1//451
f 258//452 257//452 256//452
f 259//453 258//453 256//453
f 260//454 259//454 256//454
f 261//455 260//455 256//455
f 262//456 261//456 256//456
f 263//457 262//457 256//457
f 264//457 263//457 256//457
f 265//458 264//458 256//458
f 266//457 265//457 256//457
f 267//459 266//459 256//459
f 268//460 267//460 256//460
f 269//458 268//458 256//458
f 270//458 269//458 256//458
f 271//461 272//461 273//461
f 273//462 274//462 271//462
f 272//463 275//463 276//463
f 276//464 273//464 272//464
f 275//465 277//465 278//465
f 278//466 276//466 275//466
f 277//467 279//467 280//467
f 280//467 278//467 277//467
f 279//468 281//468 282//468
f 282//469 280//469 279//469
f 281//470 283//470 284//470
f 284//471 282//471 281//471
f 283//472 285//472 286//472
f 286//472 284//472 283//472
f 285//473 287//473 288//473
f 288//473 286//473 285//473
f 287//474 289//474 290//474
f 290//475 288//475 287//475
f 289//476 291//476 292//476
f 292//477 290//477 289//477
f 291//478 293//478 294//478
f 294//478 292//478 291//478
f 293//479 295//479 296//479
f 296//480 294//480 293//480
f 295//481 297//481 298//481
f 298//482 296//482 295//482
f 297//483 299//483 300//483
f 300//484 298//484 297//484
f 299//485 271//485 274//485
f 274//486 300//486 299//486
f 301//487 302//487 303//487
f 301//488 303//488 304//488
f 301//488 304//488 305//488
f 301//489 305//489 306//489
f 301//490 306//490 307//490
f 301//491 307//491 308//491
f 301//488 308//488 309//488
f 301//490 309//490 310//490
f 301//492 310//492 311//492
f 301//488 311//488 312//488
f 301//493 312//493 313//493
f 301//494 313//494 314//494
f 301//495 314//495 315//495
f 316//496 317//496 318//496
f 319//497 320//497 316//497
f 321//497 319//497 316//497
f 322//498 321//498 316//498
f 323//499 322//499 316//499
f 324//500 323//500 316//500
f 325//498 324//498 316//498
f 326//499 325//499 316//499
f 327//498 326//498 316//498
f 328//498 327//498 316//498
f 329//501 328//501 316//501
f 330//502 329//502 316//502
f 330//503 316//503 318//503
f 315//504 331//504 332//504
f 332//491 301//491 315//491
f 314//505 333//505 331//505
f 331//506 315//506 314//506
f 313//488 334//488 333//488
f 333//507 314//507 313//507
f 312//508 335//508 334//508
f 334//509 313//509 312//509
f 311//510 336//510 335//510
f 335//491 312//491 311//491
f 310//511 337//511 336//511
f 336//512 311//512 310//512
f 309//491 338//491 337//491
f 337//513 310//513 309//513
f 308//514 339//514 338//514
f 338//515 309//515 308//515
f 307//488 340//488 339//488
f 339//493 308//493 307//493
f 306//516 341//516 340//516
f 340//516 307//516 306//516
f 305//508 342//508 341//508
f 341//511 306//511 305//511
f 304//511 343//511 342//511
f 342//491 305//491 304//491
f 303//516 344//516 343//516
f 343//488 304//488 303//488
f 302//508 345//508 344//508
f 344//516 303//516 302//516
f 301//488 332//488 345//488
f 345//488 302//488 301//488
f 316//517 346//517 347//517
f 347//503 317//503 316//503
f 320//498 348//498 346//498
f 346//497 316//497 320//497
f 319//518 349//518 348//518
f 348//499 320//499 319//499
f 321//499 350//499 349//499
f 349//518 319//518 321//518
f 322//498 351//498 350//498
f 350//519 321//519 322//519
f 323//520 352//520 351//520
f 351//498 322//498 323//498
f 324//498 353//498 352//498
f 352//521 323//521 324//521
f 325//517 354//517 353//517
f 353//498 324//498 325//498
f 326//498 355//498 354//498
f 354//497 325//497 326//497
f 327//497 356//497 355//497
f 355//498 326//498 327//498
f 328//497 357//497 356//497
f 356//497 327//497 328//497
f 329//522 358//522 357//522
f 357//501 328//501 329//501
f 330//501 359//501 358//501
f 358//520 329//520 330//520
f 318//519 360//519 359//519
f 359//501 330//501 318//501
f 317//497 347//497 360//497
f 360//523 318//523 317//523
f 274//524 273//524 347//524
f 347//525 346//525 274//525
f 272//526 271//526 332//526
f 332//527 331//527 272//527
f 273//528 276//528 360//528
f 360//529 347//529 273//529
f 275//530 272//530 331//530
f 331//531 333//531 275//531
f 276//532 278//532 359//532
f 359//533 360//533 276//533
f 277//534 275//534 333//534
f 333//535 334//535 277//535
f 278//536 280//536 358//536
f 358//536 359//536 278//536
f 279//537 277//537 334//537
f 334//538 335//538 279//538
f 280//539 282//539 357//539
f 357//540 358//540 280//540
f 281//541 279//541 335//541
f 335//542 336//542 281//542
f 282//543 284//543 356//543
f 356//544 357//544 282//544
f 283//545 281//545 336//545
f 336//546 337//546 283//546
f 284//547 286//547 355//547
f 355//548 356//548 284//548
f 285//549 283//549 337//549
f 337//550 338//550 285//550
f 286//551 288//551 354//551
f 354//552 355//552 286//552
f 287//553 285//553 338//553
f 338//554 339//554 287//554
f 288//555 290//555 353//555
f 353//556 354//556 288//556
f 289//557 287//557 339//557
f 339//558 340//558 289//558
f 290//559 292//559 352//559
f 352//560 353//560 290//560
f 291//561 289//561 340//561
f 340//562 341//562 291//562
f 292//563 294//563 351//563
f 351//564 352//564 292//564
f 293//565 291//565 341//565
f 341//566 342//566 293//566
f 294//567 296//567 350//567
f 350//568 351//568 294//568
f 295//569 293//569 342//569
f 342//570 343//570 295//570
f 296//571 298//571 349//571
f 349//572 350//572 296//572
f 297//573 295//573 343//573
f 343//574 344//574 297//574
f 298//575 300//575 348//575
f 348//576 349//576 298//576
f 299//577 297//577 344//577
f 344//578 345//578 299//578
f 300//579 274//579 346//579
f 346//580 348//580 300//580
f 271//581 299//581 345//581
f 345//582 332//582 271//582
f 361//583 362//583 363//583
f 364//584 363//584 362//584
f 365//585 361//585 366//585
f 363//585 366//585 361//585
f 367//586 365//586 368//586
f 366//586 368//586 365//586
f 369//587 367//587 370//587
f 368//587 370//587 367//587
f 371//588 369//588 372//588
f 370//589 372//589 369//589
f 373//590 371//590 374//590
f 372//591 374//591 371//591
f 375//592 373//592 376//592
f 374//592 376//592 373//592
f 377//593 375//593 378//593
f 376//593 378//593 375//593
f 379//594 377//594 380//594
f 378//594 380//594 377//594
f 381//595 379//595 382//595
f 380//595 382//595 379//595
f 383//596 381//596 384//596
f 382//596 384//596 381//596
f 385//597 383//597 386//597
f 384//597 386//597 383//597
f 387//598 385//598 388//598
f 386//598 388//598 385//598
f 389//599 387//599 390//599
f 388//600 390//600 387//600
f 362//601 389//601 364//601
f 390//602 364//602 389//602
f 391//603 392//603 393//603
f 393//604 392//604 394//604
f 394//604 392//604 395//604
f 395//605 392//605 396//605
f 396//606 392//606 397//606
f 397//607 392//607 398//607
f 398//604 392//604 399//604
f 399//607 392//607 400//607
f 400//608 392//608 401//608
f 401//609 392//609 402//609
f 402//610 392//610 403//610
f 403//611 392//611 404//611
f 404//612 392//612 405//612
f 406//613 407//613 408//613
f 409//614 410//614 407//614
f 410//615 411//615 407//615
f 411//616 412//616 407//616
f 412//617 413//617 407//617
f 413//616 414//616 407//616
f 414//616 415//616 407//616
f 415//614 416//614 407//614
f 416//616 417//616 407//616
f 417//616 418//616 407//616
f 418//618 419//618 407//618
f 419//619 420//619 407//619
f 407//620 420//620 408//620
f 421//621 405//621 422//621
f 392//607 422//607 405//607
f 423//622 404//622 421//622
f 405//623 421//623 404//623
f 424//604 403//604 423//604
f 404//624 423//624 403//624
f 425//605 402//605 424//605
f 403//625 424//625 402//625
f 426//626 401//626 425//626
f 402//625 425//625 401//625
f 427//625 400//625 426//625
f 401//627 426//627 400//627
f 428//628 399//628 427//628
f 400//609 427//609 399//609
f 429//609 398//609 428//609
f 399//628 428//628 398//628
f 430//604 397//604 429//604
f 398//609 429//609 397//609
f 431//628 396//628 430//628
f 397//629 430//629 396//629
f 432//625 395//625 431//625
f 396//605 431//605 395//605
f 433//605 394//605 432//605
f 395//604 432//604 394//604
f 434//630 393//630 433//630
f 394//625 433//625 393//625
f 435//609 391//609 434//609
f 393//629 434//629 391//629
f 422//604 392//604 435//604
f 391//604 435//604 392//604
f 436//631 407//631 437//631
f 406//632 437//632 407//632
f 438//614 409//614 436//614
f 407//615 436//615 409//615
f 439//633 410//633 438//633
f 409//614 438//614 410//614
f 440//614 411//614 439//614
f 410//632 439//632 411//632
f 441//616 412//616 440//616
f 411//634 440//634 412//634
f 442//615 413//615 441//615
f 412//635 441//635 413//635
f 443//632 414//632 442//632
f 413//636 442//636 414//636
f 444//637 415//637 443//637
f 414//616 443//616 415//616
f 445//616 416//616 444//616
f 415//638 444//638 416//638
f 446//615 417//615 445//615
f 416//616 445//616 417//616
f 447//615 418//615 446//615
f 417//615 446//615 418//615
f 448//639 419//639 447//639
f 418//618 447//618 419//618
f 449//617 420//617 448//617
f 419//640 448//640 420//640
f 450//641 408//641 449//641
f 420//642 449//642 408//642
f 437//615 406//615 450//615
f 408//643 450//643 406//643
f 363//644 364//644 437//644
f 436//645 437//645 364//645
f 362//646 361//646 422//646
f 421//647 422//647 361//647
f 366//648 363//648 450//648
f 437//649 450//649 363//649
f 361//650 365//650 421//650
f 423//651 421//651 365//651
f 368//652 366//652 449//652
f 450//653 449//653 366//653
f 365//654 367//654 423//654
f 424//655 423//655 367//655
f 370//656 368//656 448//656
f 449//657 448//657 368//657
f 367//658 369//658 424//658
f 425//659 424//659 369//659
f 372//660 370//660 447//660
f 448//661 447//661 370//661
f 369//662 371//662 425//662
f 426//663 425//663 371//663
f 374//664 372//664 446//664
f 447//665 446//665 372//665
f 371//666 373//666 426//666
f 427//667 426//667 373//667
f 376//668 374//668 445//668
f 446//669 445//669 374//669
f 373//670 375//670 427//670
f 428//671 427//671 375//671
f 378//672 376//672 444//672
f 445//673 444//673 376//673
f 375//674 377//674 428//674
f 429//675 428//675 377//675
f 380//676 378//676 443//676
f 444//677 443//677 378//677
f 377//678 379//678 429//678
f 430//679 429//679 379//679
f 382//680 380//680 442//680
f 443//681 442//681 380//681
f 379//682 381//682 430//682
f 431//683 430//683 381//683
f 384//684 382//684 441//684
f 442//685 441//685 382//685
f 381//686 383//686 431//686
f 432//687 431//687 383//687
f 386//688 384//688 440//688
f 441//689 440//689 384//689
f 383//690 385//690 432//690
f 433//691 432//691 385//691
f 388//692 386//692 439//692
f 440//693 439//693 386//693
f 385//694 387//694 433//694
f 434//695 433//695 387//695
f 390//696 388//696 438//696
f 439//697 438//697 388//697
f 387//698 389//698 434//698
f 435//699 434//699 389//699
f 364//700 390//700 436//700
f 438//701 436//701 390//701
f 389//702 362//702 435//702
f 422//703 435//703 362//703
f 451//704 452//704 453//704
f 453//704 454//704 451//704
f 452//705 455//705 456//705
f 456//705 453//705 452//705
f 455//706 457//706 458//706
f 458//706 456//706 455//706
f 457//707 459//707 460//707
f 460//707 458//707 457//707
f 459//708 461//708 462//708
f 462//708 460//708 459//708
f 461//709 463//709 464//709
f 464//709 462//709 461//709
f 463//710 465//710 466//710
f 466//710 464//710 463//710
f 465//711 467//711 468//711
f 468//711 466//711 465//711
f 467//712 469//712 470//712
f 470//712 468//712 467//712
f 469//713 471//713 472//713
f 472//713 470//713 469//713
f 471//714 473//714 474//714
f 474//714 472//714 471//714
f 473//715 475//715 476//715
f 476//715 474//715 473//715
f 475//716 477//716 478//716
f 478//716 476//716 475//716
f 477//717 479//717 480//717
f 480//717 478//717 477//717
f 479//718 451//718 454//718
f 454//718 480//718 479//718
f 481//719 482//719 483//719
f 481//719 483//719 484//719
f 481//719 484//719 485//719
f 481//719 485//719 486//719
f 481//719 486//719 487//719
f 481//719 487//719 488//719
f 481//719 488//719 489//719
f 481//719 489//719 490//719
f 481//719 490//719 491//719
f 481//719 491//719 492//719
f 481//719 492//719 493//719
f 481//719 493//719 494//719
f 481//719 494//719 495//719
f 496//720 497//720 498//720
f 499//720 500//720 496//720
f 501//720 499//720 496//720
f 502//720 501//720 496//720
f 503//720 502//720 496//720
f 504//720 503//720 496//720
f 505//720 504//720 496//720
f 506//720 505//720 496//720
f 507//720 506//720 496//720
f 508//720 507//720 496//720
f 509//720 508//720 496//720
f 510//720 509//720 496//720
f 510//720 496//720 498//720
f 495//719 511//719 512//719
f 512//719 481//719 495//719
f 494//719 513//719 511//719
f 511//719 495//719 494//719
f 493//719 514//719 513//719
f 513//719 494//719 493//719
f 492//719 515//719 514//719
f 514//719 493//719 492//719
f 491//719 516//719 515//719
f 515//719 492//719 491//719
f 490//719 517//719 516//719
f 516//719 491//719 490//719
f 489//719 518//719 517//719
f 517//719 490//719 489//719
f 488//719 519//719 518//719
f 518//719 489//719 488//719
f 487//719 520//719 519//719
f 519//719 488//719 487//719
f 486//719 521//719 520//719
f 520//719 487//719 486//719
f 485//719 522//719 521//719
f 521//719 486//719 485//719
f 484//719 523//719 522//719
f 522//719 485//719 484//719
f 483//719 524//719 523//719
f 523//719 484//719 483//719
f 482//719 525//719 524//719
f 524//719 483//719 482//719
f 481//719 512//719 525//719
f 525//719 482//719 481//719
f 496//720 526//720 527//720
f 527//720 497//720 496//720
f 500//720 528//720 526//720
f 526//720 496//720 500//720
f 499//720 529//720 528//720
f 528//720 500//720 499//720
f 501//720 530//720 529//720
f 529//720 499//720 501//720
f 502//720 531//720 530//720
f 530//720 501//720 502//720
f 503//720 532//720 531//720
f 531//720 502//720 503//720
f 504//720 533//720 532//720
f 532//720 503//720 504//720
f 505//720 534//720 533//720
f 533//720 504//720 505//720
f 506//720 535//720 534//720
f 534//720 505//720 506//720
f 507//720 536//720 535//720
f 535//720 506//720 507//720
f 508//720 537//720 536//720
f 536//720 507//720 508//720
f 509//720 538//720 537//720
f 537//720 508//720 509//720
f 510//720 539//720 538//720
f 538//720 509//720 510//720
f 498//720 540//720 539//720
f 539//720 510//720 498//720
f 497//720 527//720 540//720
f 540//720 498//720 497//720
f 454//721 453//721 527//721
f 527//721 526//721 454//721
f 452//722 451//722 512//722
f 512//722 511//722 452//722
f 453//723 456//723 540//723
f 540//724 527//724 453//724
f 455//725 452//725 511//725
f 511//726 513//726 455//726
f 456//727 458//727 539//727
f 539//728 540//728 456//728
f 457//729 455//729 513//729
f 513//730 514//730 457//730
f 458//731 460//731 538//731
f 538//732 539//732 458//732
f 459//733 457//733 514//733
f 514//734 515//734 459//734
f 460//735 462//735 537//735
f 537//736 538//736 460//736
f 461//737 459//737 515//737
f 515//738 516//738 461//738
f 462//739 464//739 536//739
f 536//740 537//740 462//740
f 463//741 461//741 516//741
f 516//742 517//742 463//742
f 464//743 466//743 535//743
f 535//744 536//744 464//744
f 465//745 463//745 517//745
f 517//746 518//746 465//746
f 466//747 468//747 534//747
f 534//748 535//748 466//748
f 467//749 465//749 518//749
f 518//750 519//750 467//750
f 468//751 470//751 533//751
f 533//752 534//752 468//752
f 469//753 467//753 519//753
f 519//754 520//754 469//754
f 470//755 472//755 532//755
f 532//756 533//756 470//756
f 471//757 469//757 520//757
f 520//758 521//758 471//758
f 472//759 474//759 531//759
f 531//760 532//760 472//760
f 473//761 471//761 521//761
f 521//762 522//762 473//762
f 474//763 476//763 530//763
f 530//764 531//764 474//764
f 475//765 473//765 522//765
f 522//766 523//766 475//766
f 476//767 478//767 529//767
f 529//768 530//768 476//768
f 477//769 475//769 523//769
f 523//770 524//770 477//770
f 478//771 480//771 528//771
f 528//772 529//772 478//772
f 479//773 477//773 524//773
f 524//774 525//774 479//774
f 480//775 454//775 526//775
f 526//776 528//776 480//776
f 451//777 479//777 525//777
f 525//778 512//778 451//778
f 541//704 542//704 543//704
f 543//704 544//704 541//704
f 542//705 545//705 546//705
f 546//705 543//705 542//705
f 545//706 547//706 548//706
f 548//706 546//706 545//706
f 547//707 549//707 550//707
f 550//707 548//707 547//707
f 549//708 551//708 552//708
f 552//708 550//708 549//708
f 551//709 553//709 554//709
f 554//779 552//779 551//779
f 553//710 555//710 556//710
f 556//710 554//710 553//710
f 555//711 557//711 558//711
f 558//711 556//711 555//711
f 557//712 559//712 560//712
f 560//712 558//712 557//712
f 559//713 561//713 562//713
f 562//713 560//713 559//713
f 561//780 563//780 564//780
f 564//780 562//780 561//780
f 563//715 565//715 566//715
f 566//715 564//715 563//715
f 565//716 567//716 568//716
f 568//716 566//716 565//716
f 567//717 569//717 570//717
f 570//717 568//717 567//717
f 569//718 541//718 544//718
f 544//718 570//718 569//718
f 571//719 572//719 573//719
f 571//719 573//719 574//719
f 571//719 574//719 575//719
f 571//719 575//719 576//719
f 571//719 576//719 577//719
f 571//719 577//719 578//719
f 571//719 578//719 579//719
f 571//719 579//719 580//719
f 571//719 580//719 581//719
f 571//719 581//719 582//719
f 571//719 582//719 583//719
f 571//719 583//719 584//719
f 571//719 584//719 585//719
f 586//720 587//720 588//720
f 589//720 590//720 586//720
f 591//720 589//720 586//720
f 592//720 591//720 586//720
f 593//720 592//720 586//720
f 594//720 593//720 586//720
f 595//720 594//720 586//720
f 596//720 595//720 586//720
f 597//720 596//720 586//720
f 598//720 597//720 586//720
f 599//720 598//720 586//720
f 600//720 599//720 586//720
f 600//720 586//720 588//720
f 585//719 601//719 602//719
f 602//719 571//719 585//719
f 584//719 603//719 601//719
f 601//719 585//719 584//719
f 583//719 604//719 603//719
f 603//719 584//719 583//719
f 582//719 605//719 604//719
f 604//719 583//719 582//719
f 581//719 606//719 605//719
f 605//719 582//719 581//719
f 580//719 607//719 606//719
f 606//719 581//719 580//719
f 579//719 608//719 607//719
f 607//719 580//719 579//719
f 578//719 609//719 608//719
f 608//719 579//719 578//719
f 577//719 610//719 609//719
f 609//719 578//719 577//719
f 576//719 611//719 610//719
f 610//719 577//719 576//719
f 575//719 612//719 611//719
f 611//719 576//719 575//719
f 574//719 613//719 612//719
f 612//719 575//719 574//719
f 573//719 614//719 613//719
f 613//719 574//719 573//719
f 572//719 615//719 614//719
f 614//719 573//719 572//719
f 571//719 602//719 615//719
f 615//719 572//719 571//719
f 586//720 616//720 617//720
f 617//720 587//720 586//720
f 590//720 618//720 616//720
f 616//720 586//720 590//720
f 589//720 619//720 618//720
f 618//720 590//720 589//720
f 591//720 620//720 619//720
f 619//720 589//720 591//720
f 592//720 621//720 620//720
f 620//720 591//720 592//720
f 593//720 622//720 621//720
f 621//720 592//720 593//720
f 594//720 623//720 622//720
f 622//720 593//720 594//720
f 595//720 624//720 623//720
f 623//720 594//720 595//720
f 596//720 625//720 624//720
f 624//720 595//720 596//720
f 597//720 626//720 625//720
f 625//720 596//720 597//720
f 598//720 627//720 626//720
f 626//720 597//720 598//720
f 599//720 628//720 627//720
f 627//720 598//720 599//720
f 600//720 629//720 628//720
f 628//720 599//720 600//720
f 588//720 630//720 629//720
f 629//720 600//720 588//720
f 587//720 617//720 630//720
f 630//720 588//720 587//720
f 544//721 543//721 617//721
f 617//721 616//721 544//721
f 542//722 541//722 602//722
f 602//781 601//781 542//781
f 543//723 546//723 630//723
f 630//724 617//724 543//724
f 545//725 542//725 601//725
f 601//726 603//726 545//726
f 546//782 548//782 629//782
f 629//728 630//728 546//728
f 547//729 545//729 603//729
f 603//783 604//783 547//783
f 548//731 550//731 628//731
f 628//784 629//784 548//784
f 549//733 547//733 604//733
f 604//734 605//734 549//734
f 550//735 552//735 627//735
f 627//736 628//736 550//736
f 551//737 549//737 605//737
f 605//738 606//738 551//738
f 552//739 554//739 626//739
f 626//740 627//740 552//740
f 553//741 551//741 606//741
f 606//742 607//742 553//742
f 554//743 556//743 625//743
f 625//744 626//744 554//744
f 555//745 553//745 607//745
f 607//746 608//746 555//746
f 556//785 558//785 624//785
f 624//748 625//748 556//748
f 557//749 555//749 608//749
f 608//786 609//786 557//786
f 558//787 560//787 623//787
f 623//752 624//752 558//752
f 559//788 557//788 609//788
f 609//754 610//754 559//754
f 560//755 562//755 622//755
f 622//756 623//756 560//756
f 561//757 559//757 610//757
f 610//758 611//758 561//758
f 562//789 564//789 621//789
f 621//760 622//760 562//760
f 563//790 561//790 611//790
f 611//791 612//791 563//791
f 564//763 566//763 620//763
f 620//792 621//792 564//792
f 565//793 563//793 612//793
f 612//766 613//766 565//766
f 566//767 568//767 619//767
f 619//768 620//768 566//768
f 567//794 565//794 613//794
f 613//795 614//795 567//795
f 568//771 570//771 618//771
f 618//772 619//772 568//772
f 569//773 567//773 614//773
f 614//774 615//774 569//774
f 570//775 544//775 616//775
f 616//776 618//776 570//776
f 541//777 569//777 615//777
f 615//778 602//778 541//778
