# Blender 4.2.3 LTS
# www.blender.org
mtllib mat_026_right.mtl
o mat_026_right
v 0.020979 0.040828 -0.051869
v 0.020516 0.040952 -0.051899
v 0.014513 0.028380 -0.002512
v 0.014977 0.028258 -0.002487
v 0.021355 0.040530 -0.051881
v 0.015355 0.027964 -0.002516
v 0.021580 0.040108 -0.051936
v 0.015583 0.027548 -0.002594
v 0.021614 0.039636 -0.052023
v 0.015620 0.027083 -0.002708
v 0.021451 0.039195 -0.052126
v 0.015461 0.026649 -0.002838
v 0.021120 0.038862 -0.052229
v 0.015133 0.026321 -0.002961
v 0.020678 0.038694 -0.052313
v 0.014692 0.026156 -0.003057
v 0.020202 0.038720 -0.052364
v 0.014215 0.026182 -0.003108
v 0.019773 0.038936 -0.052373
v 0.013785 0.026395 -0.003106
v 0.019466 0.039304 -0.052339
v 0.013475 0.026758 -0.003051
v 0.019333 0.039761 -0.052267
v 0.013340 0.027208 -0.002953
v 0.019399 0.040227 -0.052170
v 0.013402 0.027667 -0.002829
v 0.019651 0.040623 -0.052064
v 0.013651 0.028057 -0.002699
v 0.020046 0.040879 -0.051969
v 0.014044 0.028309 -0.002587
v 0.021186 0.041065 -0.053687
v 0.020725 0.041192 -0.053741
v 0.021556 0.040759 -0.053641
v 0.021770 0.040326 -0.053611
v 0.021793 0.039842 -0.053603
v 0.021621 0.039390 -0.053617
v 0.021282 0.039048 -0.053652
v 0.020836 0.038875 -0.053701
v 0.020360 0.038902 -0.053755
v 0.019935 0.039123 -0.053806
v 0.019637 0.039501 -0.053845
v 0.019515 0.039969 -0.053864
v 0.019591 0.040448 -0.053861
v 0.019853 0.040854 -0.053836
v 0.020254 0.041117 -0.053793
v 0.021393 0.040784 -0.055507
v 0.020936 0.040905 -0.055595
v 0.021753 0.040491 -0.055379
v 0.021955 0.040076 -0.055232
v 0.021963 0.039612 -0.055093
v 0.021776 0.039178 -0.054986
v 0.021427 0.038851 -0.054928
v 0.020976 0.038685 -0.054930
v 0.020500 0.038711 -0.054992
v 0.020083 0.038923 -0.055103
v 0.019796 0.039285 -0.055243
v 0.019688 0.039734 -0.055388
v 0.019779 0.040193 -0.055514
v 0.020053 0.040582 -0.055599
v 0.020463 0.040834 -0.055627
v 0.021581 0.040038 -0.057157
v 0.021128 0.040146 -0.057276
v 0.021933 0.039778 -0.056956
v 0.022123 0.039410 -0.056707
v 0.022118 0.038998 -0.056453
v 0.021919 0.038613 -0.056238
v 0.021560 0.038322 -0.056099
v 0.021104 0.038175 -0.056060
v 0.020629 0.038197 -0.056128
v 0.020218 0.038386 -0.056291
v 0.019941 0.038707 -0.056521
v 0.019846 0.039106 -0.056778
v 0.019951 0.039513 -0.057018
v 0.020235 0.039859 -0.057200
v 0.020652 0.040082 -0.057290
v 0.021741 0.038894 -0.058564
v 0.021290 0.038982 -0.058707
v 0.022086 0.038683 -0.058303
v 0.022266 0.038383 -0.057969
v 0.022250 0.038049 -0.057620
v 0.022041 0.037736 -0.057316
v 0.021675 0.037499 -0.057110
v 0.021216 0.037380 -0.057037
v 0.020741 0.037398 -0.057110
v 0.020335 0.037551 -0.057317
v 0.020066 0.037813 -0.057621
v 0.019982 0.038137 -0.057970
v 0.020097 0.038468 -0.058304
v 0.020391 0.038748 -0.058565
v 0.020813 0.038930 -0.058707
v 0.021865 0.037414 -0.059657
v 0.021417 0.037476 -0.059819
v 0.022205 0.037264 -0.059351
v 0.022378 0.037053 -0.058952
v 0.022354 0.036815 -0.058531
v 0.022138 0.036594 -0.058160
v 0.021766 0.036426 -0.057903
v 0.021303 0.036342 -0.057804
v 0.020829 0.036355 -0.057881
v 0.020426 0.036463 -0.058121
v 0.020164 0.036648 -0.058481
v 0.020088 0.036878 -0.058900
v 0.020211 0.037112 -0.059306
v 0.020512 0.037311 -0.059627
v 0.020938 0.037440 -0.059809
v 0.021946 0.035659 -0.060367
v 0.021499 0.035691 -0.060541
v 0.022282 0.035581 -0.060031
v 0.022451 0.035471 -0.059591
v 0.022421 0.035348 -0.059124
v 0.022200 0.035233 -0.058709
v 0.021824 0.035147 -0.058419
v 0.021360 0.035103 -0.058305
v 0.020886 0.035110 -0.058384
v 0.020486 0.035166 -0.058645
v 0.020228 0.035262 -0.059041
v 0.020157 0.035381 -0.059505
v 0.020285 0.035502 -0.059956
v 0.020590 0.035605 -0.060316
v 0.021019 0.035672 -0.060523
v 0.021973 0.033762 -0.060609
v 0.021527 0.033770 -0.060787
v 0.022309 0.033743 -0.060266
v 0.022476 0.033716 -0.059816
v 0.022446 0.033685 -0.059337
v 0.022223 0.033656 -0.058911
v 0.021846 0.033634 -0.058613
v 0.021381 0.033623 -0.058494
v 0.020908 0.033625 -0.058575
v 0.020508 0.033639 -0.058841
v 0.020251 0.033663 -0.059246
v 0.020181 0.033693 -0.059721
v 0.020311 0.033723 -0.060184
v 0.020617 0.033749 -0.060553
v 0.021047 0.033766 -0.060767
v 0.021973 -0.030525 -0.060609
v 0.021527 -0.030533 -0.060787
v 0.022309 -0.030506 -0.060266
v 0.022476 -0.030478 -0.059816
v 0.022446 -0.030448 -0.059337
v 0.022223 -0.030419 -0.058911
v 0.021846 -0.030397 -0.058613
v 0.021381 -0.030386 -0.058494
v 0.020908 -0.030388 -0.058575
v 0.020508 -0.030402 -0.058841
v 0.020251 -0.030426 -0.059246
v 0.020181 -0.030456 -0.059721
v 0.020311 -0.030486 -0.060184
v 0.020617 -0.030512 -0.060553
v 0.021047 -0.030529 -0.060767
v 0.021946 -0.032422 -0.060367
v 0.021499 -0.032454 -0.060541
v 0.022282 -0.032344 -0.060031
v 0.022451 -0.032234 -0.059591
v 0.022421 -0.032111 -0.059124
v 0.022200 -0.031996 -0.058709
v 0.021824 -0.031910 -0.058419
v 0.021360 -0.031866 -0.058305
v 0.020886 -0.031872 -0.058384
v 0.020486 -0.031929 -0.058645
v 0.020228 -0.032024 -0.059041
v 0.020157 -0.032143 -0.059505
v 0.020285 -0.032265 -0.059956
v 0.020590 -0.032368 -0.060316
v 0.021019 -0.032435 -0.060523
v 0.021865 -0.034177 -0.059657
v 0.021417 -0.034239 -0.059819
v 0.022205 -0.034027 -0.059351
v 0.022378 -0.033815 -0.058952
v 0.022354 -0.033578 -0.058531
v 0.022138 -0.033357 -0.058160
v 0.021766 -0.033189 -0.057903
v 0.021303 -0.033105 -0.057804
v 0.020829 -0.033118 -0.057881
v 0.020426 -0.033226 -0.058121
v 0.020164 -0.033411 -0.058481
v 0.020088 -0.033641 -0.058900
v 0.020211 -0.033875 -0.059306
v 0.020512 -0.034074 -0.059627
v 0.020938 -0.034203 -0.059809
v 0.021741 -0.035657 -0.058564
v 0.021290 -0.035745 -0.058707
v 0.022086 -0.035446 -0.058303
v 0.022266 -0.035146 -0.057969
v 0.022250 -0.034812 -0.057620
v 0.022041 -0.034499 -0.057316
v 0.021675 -0.034262 -0.057110
v 0.021216 -0.034143 -0.057037
v 0.020741 -0.034161 -0.057110
v 0.020335 -0.034314 -0.057317
v 0.020066 -0.034575 -0.057621
v 0.019982 -0.034900 -0.057970
v 0.020097 -0.035231 -0.058304
v 0.020391 -0.035511 -0.058565
v 0.020813 -0.035693 -0.058707
v 0.021581 -0.036801 -0.057157
v 0.021128 -0.036909 -0.057276
v 0.021933 -0.036541 -0.056956
v 0.022123 -0.036173 -0.056707
v 0.022118 -0.035760 -0.056453
v 0.021919 -0.035376 -0.056238
v 0.021560 -0.035085 -0.056099
v 0.021104 -0.034938 -0.056060
v 0.020629 -0.034960 -0.056128
v 0.020218 -0.035149 -0.056291
v 0.019941 -0.035470 -0.056521
v 0.019846 -0.035869 -0.056778
v 0.019951 -0.036276 -0.057018
v 0.020235 -0.036622 -0.057200
v 0.020652 -0.036845 -0.057290
v 0.021393 -0.037547 -0.055507
v 0.020936 -0.037668 -0.055595
v 0.021753 -0.037254 -0.055379
v 0.021955 -0.036839 -0.055232
v 0.021963 -0.036375 -0.055093
v 0.021776 -0.035941 -0.054986
v 0.021427 -0.035613 -0.054928
v 0.020976 -0.035448 -0.054930
v 0.020500 -0.035474 -0.054992
v 0.020083 -0.035686 -0.055103
v 0.019796 -0.036048 -0.055243
v 0.019688 -0.036497 -0.055388
v 0.019779 -0.036956 -0.055514
v 0.020053 -0.037345 -0.055599
v 0.020463 -0.037597 -0.055627
v 0.021186 -0.037828 -0.053687
v 0.020725 -0.037955 -0.053740
v 0.021556 -0.037522 -0.053641
v 0.021770 -0.037089 -0.053611
v 0.021793 -0.036605 -0.053603
v 0.021621 -0.036153 -0.053617
v 0.021282 -0.035811 -0.053652
v 0.020836 -0.035638 -0.053701
v 0.020360 -0.035665 -0.053755
v 0.019935 -0.035886 -0.053806
v 0.019637 -0.036264 -0.053845
v 0.019515 -0.036732 -0.053864
v 0.019591 -0.037211 -0.053861
v 0.019853 -0.037617 -0.053836
v 0.020254 -0.037880 -0.053793
v 0.020979 -0.037591 -0.051868
v 0.020516 -0.037714 -0.051899
v 0.021355 -0.037292 -0.051881
v 0.021580 -0.036871 -0.051936
v 0.021614 -0.036399 -0.052023
v 0.021451 -0.035958 -0.052127
v 0.021121 -0.035625 -0.052230
v 0.020678 -0.035457 -0.052314
v 0.020202 -0.035483 -0.052365
v 0.019773 -0.035699 -0.052374
v 0.019466 -0.036067 -0.052339
v 0.019333 -0.036524 -0.052267
v 0.019399 -0.036990 -0.052169
v 0.019651 -0.037386 -0.052063
v 0.020046 -0.037642 -0.051968
v 0.015561 -0.026146 -0.007132
v 0.015097 -0.026268 -0.007157
v 0.015939 -0.025852 -0.007161
v 0.016167 -0.025437 -0.007240
v 0.016204 -0.024972 -0.007354
v 0.016045 -0.024538 -0.007484
v 0.015717 -0.024210 -0.007608
v 0.015276 -0.024045 -0.007704
v 0.014799 -0.024071 -0.007755
v 0.014369 -0.024284 -0.007753
v 0.014059 -0.024646 -0.007697
v 0.013923 -0.025096 -0.007598
v 0.013986 -0.025556 -0.007473
v 0.014235 -0.025945 -0.007344
v 0.014628 -0.026197 -0.007231
v 0.019534 0.037484 -0.038264
v 0.020168 0.039032 -0.043839
v 0.019588 0.039186 -0.043862
v 0.018954 0.037638 -0.038288
v 0.020006 0.037117 -0.038312
v 0.020640 0.038665 -0.043887
v 0.020290 0.036600 -0.038424
v 0.020924 0.038148 -0.043998
v 0.020335 0.036022 -0.038579
v 0.020969 0.037570 -0.044154
v 0.020135 0.035483 -0.038752
v 0.020769 0.037031 -0.044326
v 0.019723 0.035077 -0.038911
v 0.020357 0.036625 -0.044486
v 0.019171 0.034873 -0.039031
v 0.019805 0.036421 -0.044605
v 0.018575 0.034907 -0.039089
v 0.019209 0.036455 -0.044664
v 0.018037 0.035173 -0.039076
v 0.018671 0.036721 -0.044651
v 0.017650 0.035625 -0.038995
v 0.018285 0.037173 -0.044569
v 0.017482 0.036185 -0.038859
v 0.018117 0.037733 -0.044433
v 0.017562 0.036755 -0.038691
v 0.018196 0.038303 -0.044266
v 0.017875 0.037239 -0.038521
v 0.018509 0.038787 -0.044096
v 0.018367 0.037551 -0.038378
v 0.019001 0.039099 -0.043953
v 0.018763 0.038573 -0.044206
v 0.019139 0.038811 -0.044097
v 0.019587 0.038877 -0.044028
v 0.018524 0.038204 -0.044335
v 0.018463 0.037768 -0.044463
v 0.018592 0.037341 -0.044567
v 0.018887 0.036996 -0.044630
v 0.019297 0.036793 -0.044639
v 0.019753 0.036767 -0.044595
v 0.020174 0.036922 -0.044504
v 0.020488 0.037233 -0.044382
v 0.020641 0.037644 -0.044250
v 0.020606 0.038085 -0.044132
v 0.020390 0.038480 -0.044046
v 0.020029 0.038760 -0.044010
v 0.019739 0.036891 -0.038326
v 0.019379 0.037172 -0.038289
v 0.018936 0.037289 -0.038307
v 0.018488 0.037222 -0.038376
v 0.018112 0.036984 -0.038485
v 0.017873 0.036615 -0.038615
v 0.017813 0.036179 -0.038743
v 0.017941 0.035752 -0.038847
v 0.018236 0.035407 -0.038909
v 0.018647 0.035204 -0.038919
v 0.019102 0.035178 -0.038874
v 0.019523 0.035334 -0.038783
v 0.019837 0.035644 -0.038661
v 0.019990 0.036055 -0.038530
v 0.019956 0.036497 -0.038411
v 0.019594 0.039133 -0.043956
v 0.020143 0.038987 -0.043934
v 0.020591 0.038640 -0.043979
v 0.020860 0.038150 -0.044085
v 0.020903 0.037602 -0.044232
v 0.020713 0.037092 -0.044395
v 0.020323 0.036707 -0.044547
v 0.019800 0.036514 -0.044660
v 0.019235 0.036546 -0.044715
v 0.018725 0.036798 -0.044703
v 0.018360 0.037226 -0.044626
v 0.018200 0.037756 -0.044497
v 0.018275 0.038297 -0.044338
v 0.018572 0.038755 -0.044177
v 0.019038 0.039050 -0.044042
v 0.019493 0.037399 -0.038213
v 0.018943 0.037544 -0.038235
v 0.018388 0.037462 -0.038321
v 0.017921 0.037166 -0.038456
v 0.017625 0.036709 -0.038617
v 0.017549 0.036168 -0.038776
v 0.017709 0.035637 -0.038905
v 0.018075 0.035209 -0.038982
v 0.018584 0.034957 -0.038994
v 0.019149 0.034925 -0.038939
v 0.019672 0.035118 -0.038826
v 0.020062 0.035503 -0.038675
v 0.020252 0.036014 -0.038511
v 0.020209 0.036561 -0.038364
v 0.019940 0.037051 -0.038259
v 0.019534 -0.034279 -0.038264
v 0.019588 -0.035981 -0.043862
v 0.020168 -0.035827 -0.043839
v 0.018954 -0.034433 -0.038288
v 0.020006 -0.033912 -0.038312
v 0.020640 -0.035460 -0.043887
v 0.020290 -0.033395 -0.038424
v 0.020924 -0.034943 -0.043998
v 0.020335 -0.032817 -0.038579
v 0.020969 -0.034365 -0.044154
v 0.020135 -0.032278 -0.038752
v 0.020769 -0.033826 -0.044326
v 0.019723 -0.031872 -0.038911
v 0.020357 -0.033420 -0.044486
v 0.019171 -0.031668 -0.039031
v 0.019805 -0.033216 -0.044605
v 0.018575 -0.031702 -0.039089
v 0.019209 -0.033250 -0.044664
v 0.018037 -0.031968 -0.039076
v 0.018671 -0.033516 -0.044651
v 0.017650 -0.032420 -0.038995
v 0.018285 -0.033968 -0.044569
v 0.017482 -0.032980 -0.038859
v 0.018117 -0.034528 -0.044433
v 0.017562 -0.033551 -0.038691
v 0.018196 -0.035099 -0.044266
v 0.017875 -0.034034 -0.038521
v 0.018509 -0.035582 -0.044096
v 0.018367 -0.034346 -0.038378
v 0.019001 -0.035894 -0.043953
v 0.018763 -0.035368 -0.044206
v 0.019587 -0.035672 -0.044028
v 0.019139 -0.035606 -0.044097
v 0.018524 -0.034999 -0.044335
v 0.018463 -0.034563 -0.044463
v 0.018592 -0.034136 -0.044567
v 0.018887 -0.033791 -0.044630
v 0.019297 -0.033588 -0.044639
v 0.019753 -0.033562 -0.044595
v 0.020174 -0.033717 -0.044504
v 0.020488 -0.034028 -0.044382
v 0.020641 -0.034439 -0.044250
v 0.020606 -0.034880 -0.044132
v 0.020390 -0.035275 -0.044046
v 0.020029 -0.035555 -0.044010
v 0.019739 -0.033686 -0.038326
v 0.018936 -0.034084 -0.038307
v 0.019379 -0.033967 -0.038289
v 0.018112 -0.033779 -0.038485
v 0.018488 -0.034017 -0.038376
v 0.017873 -0.033410 -0.038615
v 0.017813 -0.032975 -0.038743
v 0.017941 -0.032547 -0.038847
v 0.018236 -0.032202 -0.038909
v 0.018647 -0.031999 -0.038919
v 0.019102 -0.031973 -0.038874
v 0.019523 -0.032129 -0.038783
v 0.019837 -0.032439 -0.038661
v 0.019990 -0.032850 -0.038530
v 0.019956 -0.033292 -0.038411
v 0.019594 -0.035928 -0.043956
v 0.020143 -0.035782 -0.043934
v 0.020591 -0.035435 -0.043979
v 0.020860 -0.034945 -0.044085
v 0.020903 -0.034397 -0.044232
v 0.020713 -0.033887 -0.044395
v 0.020323 -0.033502 -0.044547
v 0.019800 -0.033309 -0.044660
v 0.019235 -0.033341 -0.044715
v 0.018725 -0.033593 -0.044703
v 0.018360 -0.034021 -0.044626
v 0.018200 -0.034551 -0.044497
v 0.018275 -0.035092 -0.044338
v 0.018572 -0.035550 -0.044177
v 0.019038 -0.035845 -0.044042
v 0.019493 -0.034194 -0.038213
v 0.018944 -0.034339 -0.038235
v 0.018388 -0.034257 -0.038321
v 0.017921 -0.033961 -0.038456
v 0.017625 -0.033503 -0.038617
v 0.017549 -0.032963 -0.038776
v 0.017709 -0.032432 -0.038905
v 0.018075 -0.032004 -0.038982
v 0.018584 -0.031752 -0.038994
v 0.019149 -0.031720 -0.038939
v 0.019672 -0.031913 -0.038826
v 0.020062 -0.032298 -0.038675
v 0.020252 -0.032809 -0.038511
v 0.020209 -0.033356 -0.038364
v 0.019940 -0.033846 -0.038259
v 0.020612 0.024796 -0.060898
v 0.020612 0.029636 -0.060898
v 0.021183 0.029636 -0.061084
v 0.021183 0.024796 -0.061084
v 0.020166 0.024796 -0.060497
v 0.020166 0.029636 -0.060497
v 0.019922 0.024796 -0.059949
v 0.019922 0.029636 -0.059949
v 0.019922 0.024796 -0.059348
v 0.019922 0.029636 -0.059348
v 0.020166 0.024796 -0.058800
v 0.020166 0.029636 -0.058800
v 0.020612 0.024796 -0.058398
v 0.020612 0.029636 -0.058398
v 0.021182 0.024796 -0.058212
v 0.021182 0.029636 -0.058212
v 0.021779 0.024796 -0.058275
v 0.021779 0.029636 -0.058275
v 0.022299 0.024796 -0.058575
v 0.022299 0.029636 -0.058575
v 0.022652 0.024796 -0.059060
v 0.022652 0.029636 -0.059060
v 0.022777 0.024796 -0.059648
v 0.022777 0.029636 -0.059648
v 0.022652 0.024796 -0.060235
v 0.022652 0.029636 -0.060235
v 0.022300 0.024796 -0.060720
v 0.022300 0.029636 -0.060720
v 0.021780 0.024796 -0.061021
v 0.021780 0.029636 -0.061021
v 0.022049 0.029751 -0.060443
v 0.021664 0.029751 -0.060665
v 0.021222 0.029751 -0.060712
v 0.022311 0.029751 -0.060083
v 0.022403 0.029751 -0.059648
v 0.022310 0.029751 -0.059213
v 0.022049 0.029751 -0.058853
v 0.021664 0.029751 -0.058631
v 0.021221 0.029751 -0.058584
v 0.020799 0.029751 -0.058722
v 0.020468 0.029751 -0.059020
v 0.020288 0.029751 -0.059426
v 0.020288 0.029751 -0.059871
v 0.020469 0.029751 -0.060277
v 0.020799 0.029751 -0.060574
v 0.020469 0.024680 -0.060277
v 0.020799 0.024680 -0.060574
v 0.021222 0.024680 -0.060712
v 0.021664 0.024680 -0.060665
v 0.022049 0.024680 -0.060443
v 0.022311 0.024680 -0.060083
v 0.022403 0.024680 -0.059648
v 0.022310 0.024680 -0.059213
v 0.022049 0.024680 -0.058853
v 0.021664 0.024680 -0.058631
v 0.021221 0.024680 -0.058584
v 0.020799 0.024680 -0.058722
v 0.020468 0.024680 -0.059020
v 0.020288 0.024680 -0.059426
v 0.020288 0.024680 -0.059871
v 0.021195 0.029751 -0.060969
v 0.020670 0.029751 -0.060798
v 0.020259 0.029751 -0.060429
v 0.020035 0.029751 -0.059924
v 0.020035 0.029751 -0.059372
v 0.020259 0.029751 -0.058868
v 0.020669 0.029751 -0.058498
v 0.021194 0.029751 -0.058327
v 0.021744 0.029751 -0.058385
v 0.022222 0.029751 -0.058661
v 0.022547 0.029751 -0.059108
v 0.022662 0.029751 -0.059648
v 0.022547 0.029751 -0.060188
v 0.022223 0.029751 -0.060635
v 0.021744 0.029751 -0.060911
v 0.020670 0.024680 -0.060798
v 0.021195 0.024680 -0.060969
v 0.021744 0.024680 -0.060911
v 0.022223 0.024680 -0.060635
v 0.022547 0.024680 -0.060188
v 0.022662 0.024680 -0.059648
v 0.022547 0.024680 -0.059108
v 0.022222 0.024680 -0.058661
v 0.021744 0.024680 -0.058385
v 0.021194 0.024680 -0.058327
v 0.020669 0.024680 -0.058498
v 0.020259 0.024680 -0.058868
v 0.020035 0.024680 -0.059372
v 0.020035 0.024680 -0.059924
v 0.020259 0.024680 -0.060429
v 0.020612 -0.026363 -0.060898
v 0.020612 -0.021524 -0.060898
v 0.021183 -0.021524 -0.061084
v 0.021183 -0.026363 -0.061084
v 0.020166 -0.026363 -0.060497
v 0.020166 -0.021524 -0.060497
v 0.019922 -0.026363 -0.059949
v 0.019922 -0.021524 -0.059949
v 0.019922 -0.026363 -0.059348
v 0.019922 -0.021524 -0.059348
v 0.020166 -0.026363 -0.058800
v 0.020166 -0.021524 -0.058800
v 0.020612 -0.026363 -0.058398
v 0.020612 -0.021524 -0.058398
v 0.021182 -0.026363 -0.058212
v 0.021182 -0.021524 -0.058212
v 0.021779 -0.026363 -0.058275
v 0.021779 -0.021524 -0.058275
v 0.022299 -0.026363 -0.058575
v 0.022299 -0.021524 -0.058575
v 0.022652 -0.026363 -0.059060
v 0.022652 -0.021524 -0.059060
v 0.022777 -0.026363 -0.059648
v 0.022777 -0.021524 -0.059648
v 0.022652 -0.026363 -0.060235
v 0.022652 -0.021524 -0.060235
v 0.022300 -0.026363 -0.060720
v 0.022300 -0.021524 -0.060720
v 0.021780 -0.026363 -0.061021
v 0.021780 -0.021524 -0.061021
v 0.022049 -0.021408 -0.060443
v 0.021664 -0.021408 -0.060665
v 0.021222 -0.021408 -0.060712
v 0.022311 -0.021408 -0.060083
v 0.022403 -0.021408 -0.059648
v 0.022311 -0.021408 -0.059213
v 0.022049 -0.021408 -0.058853
v 0.021664 -0.021408 -0.058631
v 0.021221 -0.021408 -0.058584
v 0.020799 -0.021408 -0.058722
v 0.020468 -0.021408 -0.059020
v 0.020288 -0.021408 -0.059426
v 0.020288 -0.021408 -0.059871
v 0.020469 -0.021408 -0.060277
v 0.020799 -0.021408 -0.060574
v 0.020469 -0.026479 -0.060277
v 0.020799 -0.026479 -0.060574
v 0.021222 -0.026479 -0.060712
v 0.021664 -0.026479 -0.060665
v 0.022049 -0.026479 -0.060443
v 0.022311 -0.026479 -0.060083
v 0.022403 -0.026479 -0.059648
v 0.022311 -0.026479 -0.059213
v 0.022049 -0.026479 -0.058853
v 0.021664 -0.026479 -0.058631
v 0.021221 -0.026479 -0.058584
v 0.020799 -0.026479 -0.058722
v 0.020468 -0.026479 -0.059020
v 0.020288 -0.026479 -0.059426
v 0.020288 -0.026479 -0.059871
v 0.021195 -0.021408 -0.060969
v 0.020670 -0.021408 -0.060798
v 0.020259 -0.021408 -0.060429
v 0.020035 -0.021408 -0.059924
v 0.020035 -0.021408 -0.059372
v 0.020259 -0.021408 -0.058868
v 0.020669 -0.021408 -0.058498
v 0.021195 -0.021408 -0.058327
v 0.021744 -0.021408 -0.058385
v 0.022222 -0.021408 -0.058661
v 0.022547 -0.021408 -0.059108
v 0.022662 -0.021408 -0.059648
v 0.022547 -0.021408 -0.060188
v 0.022223 -0.021408 -0.060635
v 0.021744 -0.021408 -0.060911
v 0.020670 -0.026479 -0.060798
v 0.021195 -0.026479 -0.060969
v 0.021744 -0.026479 -0.060911
v 0.022223 -0.026479 -0.060635
v 0.022547 -0.026479 -0.060188
v 0.022662 -0.026479 -0.059648
v 0.022547 -0.026479 -0.059108
v 0.022222 -0.026479 -0.058661
v 0.021744 -0.026479 -0.058385
v 0.021195 -0.026479 -0.058327
v 0.020669 -0.026479 -0.058498
v 0.020259 -0.026479 -0.058868
v 0.020035 -0.026479 -0.059372
v 0.020035 -0.026479 -0.059924
v 0.020259 -0.026479 -0.060429
vn 0.2320 -0.9353 0.2674
vn 0.6047 -0.7510 0.2653
vn -0.8467 0.5311 0.0323
vn -0.9846 0.1553 -0.0801
vn -0.9523 0.2474 -0.1786
vn 0.2480 -0.0000 0.9688
vn 0.3799 0.9062 -0.1858
vn -0.1674 -0.0000 0.9859
vn -0.4276 0.8620 -0.2723
vn -0.7553 0.6072 -0.2468
vn 0.9361 -0.3508 0.0245
vn 0.9901 -0.0471 0.1320
vn -0.8468 -0.5309 0.0333
vn -0.0632 0.5896 -0.8052
vn -0.1809 -0.9579 0.2231
vn 0.3679 0.1234 -0.9216
vn -0.9894 -0.0000 0.1454
vn 0.8798 -0.4481 0.1586
vn 0.9916 -0.0494 0.1192
vn 0.9320 0.3576 0.0594
vn 0.7112 0.7030 -0.0108
vn 0.7149 -0.0000 -0.6993
vn -0.1665 -0.1277 0.9777
vn -0.5531 0.1138 0.8253
vn -0.7646 0.6222 -0.1682
vn 0.9979 0.0064 0.0639
vn -0.9833 -0.1576 -0.0913
vn -0.8399 -0.5422 -0.0248
vn -0.5514 -0.8330 0.0460
vn 0.6047 0.7512 0.2647
vn 0.3673 0.9267 -0.0791
vn 0.6406 -0.7665 -0.0455
vn -0.9786 -0.1995 0.0509
vn 0.9932 -0.0491 0.1054
vn -0.9736 -0.1451 -0.1763
vn -0.8307 -0.3743 0.4121
vn -0.8447 -0.0000 0.5353
vn -0.0716 0.9869 0.1443
vn 0.9980 -0.0000 0.0635
vn -0.7845 0.6200 0.0066
vn -0.9782 0.1572 -0.1355
vn -0.9782 -0.1572 -0.1355
vn 0.9073 0.4121 -0.0830
vn -0.8441 0.0802 0.5302
vn -0.7553 -0.6073 -0.2464
vn 0.3042 -0.8806 -0.3633
vn -0.8399 0.5422 -0.0248
vn 0.9074 -0.4121 -0.0830
vn 0.9947 -0.0453 0.0927
vn 0.8942 -0.4465 0.0328
vn -0.9891 -0.0328 0.1433
vn 0.3376 0.9237 0.1811
vn -0.1007 0.9109 0.4001
vn 0.7142 -0.0992 -0.6929
vn -0.7823 -0.3263 -0.5306
vn 0.9976 -0.0188 0.0670
vn 0.9947 0.0453 0.0927
vn 0.9275 -0.2695 -0.2593
vn 0.7112 -0.7029 -0.0108
vn -0.1072 -0.9014 -0.4195
vn 0.3281 -0.7508 -0.5732
vn -0.7706 -0.0699 -0.6334
vn 0.9338 0.1701 -0.3149
vn -0.9723 0.2338 -0.0049
vn 0.9010 0.2806 0.3307
vn 0.8863 -0.0461 0.4609
vn 0.2873 0.7269 0.6238
vn -0.1592 -0.3760 0.9128
vn -0.5166 0.6921 0.5041
vn -0.8183 0.4879 0.3037
vn -0.9872 -0.0965 0.1266
vn 0.9969 0.0297 0.0732
vn -0.7747 0.2059 -0.5979
vn -0.4510 -0.3163 -0.8346
vn -0.0828 -0.7686 -0.6344
vn 0.3471 -0.5759 -0.7401
vn 0.6976 -0.4627 -0.5470
vn 0.9185 -0.3514 -0.1812
vn -0.9643 -0.0598 -0.2579
vn 0.9011 -0.2806 0.3306
vn 0.6364 0.4230 0.6450
vn 0.2873 -0.7269 0.6238
vn -0.1592 0.3760 0.9129
vn -0.5340 0.5310 0.6580
vn -0.8307 0.3743 0.4121
vn 0.9100 0.3292 0.2522
vn -0.9697 -0.1237 -0.2109
vn -0.7931 -0.4253 -0.4360
vn -0.4628 -0.5013 -0.7311
vn -0.0632 -0.5896 -0.8052
vn 0.2489 -0.1195 0.9611
vn 0.6632 -0.7075 -0.2442
vn 0.9338 -0.1701 -0.3149
vn 0.9205 0.3566 0.1598
vn 0.8889 0.1358 0.4375
vn 0.6266 0.2670 0.7322
vn 0.3103 0.8526 0.4205
vn -0.1451 -0.5958 0.7899
vn 0.8859 -0.0000 0.4638
vn 0.9916 0.0495 0.1192
vn -0.9872 0.0965 0.1266
vn 0.9969 -0.0297 0.0732
vn -0.7746 -0.2059 -0.5980
vn -0.5001 -0.7664 -0.4032
vn -0.1072 0.9014 -0.4194
vn 0.3679 -0.1234 -0.9216
vn 0.6159 0.7692 0.1705
vn 0.6405 0.7666 -0.0456
vn 0.9979 -0.0064 0.0639
vn 0.6266 -0.2669 0.7322
vn -0.4628 0.5013 -0.7311
vn 0.2489 0.1195 0.9611
vn -0.1666 0.1277 0.9777
vn -0.4403 0.8825 -0.1653
vn -0.7646 -0.6222 -0.1681
vn 0.9320 -0.3577 0.0593
vn -0.9631 -0.0203 -0.2682
vn 0.7085 -0.2920 -0.6425
vn -0.4448 -0.1074 -0.8892
vn -0.0422 -0.1263 -0.9911
vn -0.1673 -0.9799 0.1088
vn -0.4403 -0.8825 -0.1652
vn -0.5340 -0.5310 0.6579
vn 0.6212 0.0907 0.7784
vn -0.4946 0.8118 0.3105
vn 0.2689 0.5576 0.7854
vn 0.2455 -0.9573 0.1528
vn -0.0399 0.9902 -0.1337
vn 0.9901 0.0471 0.1323
vn -0.4448 0.1074 -0.8892
vn 0.6160 -0.7691 0.1705
vn -0.4686 -0.8795 0.0826
vn -0.5513 0.8330 0.0460
vn 0.2761 -0.9541 -0.1160
vn -0.4277 -0.8622 -0.2715
vn 0.8728 0.4370 0.2173
vn 0.7141 0.0992 -0.6929
vn 0.9371 0.0578 -0.3443
vn -0.9566 0.2544 -0.1420
vn 0.6504 0.5514 0.5224
vn 0.6212 -0.0907 0.7784
vn 0.3043 0.8806 -0.3632
vn 0.2321 0.9355 0.2663
vn -0.5532 -0.1138 0.8253
vn -0.8441 -0.0802 0.5302
vn 0.6680 0.6467 0.3682
vn -0.9566 -0.2544 -0.1420
vn -0.7706 0.0699 -0.6335
vn -0.7701 -0.0000 -0.6379
vn 0.3688 -0.0000 -0.9295
vn 0.3607 0.3635 -0.8589
vn 0.7085 0.2920 -0.6425
vn -0.8225 -0.5405 -0.1771
vn 0.9976 0.0188 0.0670
vn -0.9836 0.1529 0.0951
vn -0.9891 0.0328 0.1433
vn 0.2558 -0.3519 0.9004
vn -0.1255 0.7766 0.6173
vn -0.5465 -0.3351 0.7675
vn -0.8394 -0.2363 0.4894
vn -0.9665 -0.0948 -0.2383
vn -0.9643 0.0599 -0.2579
vn -0.7845 -0.6201 0.0065
vn -0.4510 0.3163 -0.8346
vn -0.0494 0.3721 -0.9269
vn 0.3282 0.7508 -0.5732
vn 0.6824 -0.6032 -0.4129
vn 0.9274 0.2695 -0.2593
vn 0.9959 -0.0386 0.0818
vn 0.8940 -0.2152 0.3931
vn 0.8863 0.0461 0.4609
vn 0.2689 -0.5576 0.7854
vn -0.1255 -0.7766 0.6173
vn -0.5165 -0.6922 0.5041
vn -0.9833 0.1575 -0.0913
vn -0.9836 -0.1529 0.0952
vn -0.9665 0.0949 -0.2383
vn -0.7823 0.3262 -0.5306
vn -0.4793 -0.6535 -0.5859
vn -0.0827 0.7686 -0.6344
vn 0.3607 -0.3635 -0.8589
vn 0.6824 0.6032 -0.4129
vn 0.9185 0.3514 -0.1813
vn 0.9959 0.0386 0.0818
vn 0.8889 -0.1358 0.4375
vn 0.6504 -0.5515 0.5224
vn 0.2558 0.3519 0.9004
vn -0.1008 -0.9109 0.4001
vn -0.5465 0.3351 0.7675
vn -0.8394 0.2362 0.4894
vn 0.8942 0.4465 0.0328
vn -0.9697 0.1237 -0.2109
vn -0.7931 0.4253 -0.4360
vn -0.4793 0.6535 -0.5859
vn -0.0494 -0.3721 -0.9269
vn -0.4440 -0.0000 -0.8960
vn 0.6632 0.7075 -0.2442
vn 0.8940 0.2152 0.3931
vn -0.9648 0.2534 -0.0706
vn 0.9100 -0.3291 0.2522
vn 0.6680 -0.6467 0.3682
vn 0.3104 -0.8526 0.4205
vn -0.0717 -0.9869 0.1443
vn -0.4946 -0.8118 0.3105
vn -0.8028 -0.5723 0.1673
vn -0.9722 -0.2339 -0.0049
vn -0.9736 0.1451 -0.1763
vn -0.8066 0.4988 -0.3171
vn -0.5001 0.7664 -0.4031
vn -0.1359 -0.9767 -0.1663
vn 0.2762 0.9541 -0.1160
vn 0.8798 0.4481 0.1586
vn -0.9786 0.1994 0.0508
vn 0.7454 -0.0651 -0.6634
vn 0.9205 -0.3566 0.1598
vn 0.6886 -0.7007 0.1866
vn 0.3377 -0.9237 0.1811
vn -0.0412 -0.0000 -0.9991
vn -0.9630 -0.0000 -0.2695
vn -0.8066 -0.4988 -0.3171
vn -0.9648 -0.2534 -0.0706
vn 0.9932 0.0491 0.1054
vn -0.8225 0.5405 -0.1771
vn -0.5245 0.8304 -0.1880
vn -0.1360 0.9766 -0.1664
vn 0.2456 0.9573 0.1529
vn -0.4686 0.8795 0.0826
vn 0.6365 -0.4230 0.6450
vn -0.8028 0.5723 0.1673
vn -0.9631 0.0203 -0.2682
vn -0.5246 -0.8303 -0.1879
vn 0.3675 -0.9267 -0.0792
vn -0.0401 -0.9902 -0.1338
vn 0.6205 -0.0000 0.7842
vn 0.6976 0.4627 -0.5470
vn 0.6886 0.7007 0.1866
vn -0.8184 -0.4879 0.3036
vn 0.9371 -0.0578 -0.3443
vn 0.9375 -0.0000 -0.3480
vn -0.1675 0.9799 0.1088
vn -0.1808 0.9582 0.2219
vn -0.5626 -0.8147 0.1403
vn -0.9523 -0.2475 -0.1787
vn -0.9847 -0.1552 -0.0795
vn -0.5540 -0.0000 0.8325
vn 0.7203 -0.6881 -0.0876
vn -0.0422 0.1263 -0.9911
vn 0.8747 0.4321 0.2195
vn 0.3799 -0.9064 -0.1846
vn 0.7204 0.6878 -0.0887
vn 0.9362 0.3506 0.0237
vn 0.3472 0.5759 -0.7401
vn 0.8728 -0.4369 0.2175
vn -0.5624 0.8151 0.1391
vn -0.1452 0.5958 0.7899
vn -0.1168 -0.2446 0.9626
vn -0.1170 -0.2452 0.9624
vn -0.1168 -0.2449 0.9625
vn -0.1169 -0.2449 0.9625
vn -0.1170 -0.2450 0.9624
vn -0.1169 -0.2450 0.9624
vn -0.1171 -0.2450 0.9624
vn -0.1168 -0.2451 0.9624
vn -0.1171 -0.2448 0.9625
vn -0.1164 0.2458 0.9623
vn -0.1167 0.2464 0.9621
vn -0.1165 0.2461 0.9622
vn -0.1164 0.2460 0.9622
vn -0.1166 0.2462 0.9622
vn -0.1165 0.2462 0.9622
vn -0.1164 0.2463 0.9622
vn -0.1167 0.2460 0.9622
vn -0.1166 0.2461 0.9622
vn 0.8747 -0.4322 0.2195
vn -0.4300 -0.8561 -0.2867
vn -0.9852 -0.1569 -0.0685
vn -0.1788 -0.9531 0.2443
vn 0.9362 0.3512 0.0090
vn 0.6070 -0.7453 0.2760
vn 0.7195 0.6860 -0.1087
vn 0.3783 0.9021 -0.2075
vn -0.9852 0.1569 -0.0685
vn -0.5611 0.8118 0.1616
vn -0.0259 0.9677 -0.2507
vn 0.9912 0.0443 0.1251
vn 0.9912 -0.0442 0.1250
vn -0.7574 0.6018 -0.2533
vn -0.0262 -0.9680 -0.2496
vn 0.1090 0.2658 -0.9578
vn 0.1090 0.2660 -0.9578
vn 0.1090 0.2659 -0.9578
vn 0.1089 0.2660 -0.9578
vn 0.1091 0.2660 -0.9578
vn 0.1088 0.2658 -0.9579
vn 0.1091 0.2662 -0.9577
vn 0.1088 0.2656 -0.9579
vn -0.1088 -0.2658 0.9579
vn -0.1090 -0.2660 0.9578
vn -0.1090 -0.2659 0.9578
vn -0.1089 -0.2661 0.9578
vn -0.1091 -0.2659 0.9578
vn -0.1089 -0.2660 0.9578
vn -0.1091 -0.2661 0.9578
vn -0.1089 -0.2659 0.9578
vn -0.0000 1.0000 -0.0000
vn 0.1089 0.2661 -0.9578
vn -0.0000 -1.0000 -0.0000
vn -0.1090 0.2659 0.9578
vn 0.1090 -0.2659 -0.9578
vn -0.1088 -0.2660 0.9578
vn 0.1089 -0.2660 -0.9578
vn -0.1089 0.2659 0.9578
vn 0.1089 -0.2658 -0.9579
vn 0.1089 0.2659 -0.9578
vn -0.1089 0.2660 0.9578
vn 0.1089 -0.2661 -0.9578
vn -0.2313 -0.4263 -0.8745
vn -0.4774 -0.3946 0.7851
vn 0.6992 0.6994 -0.1484
vn -0.4783 -0.6995 0.5309
vn 0.5487 -0.1226 0.8269
vn 0.6321 0.1544 0.7593
vn -0.7805 0.0738 0.6208
vn 0.5781 0.6994 0.4203
vn 0.5930 0.4371 0.6763
vn 0.0559 0.5021 -0.8630
vn -0.3836 -0.7979 0.4651
vn 0.3574 0.6990 0.6194
vn -0.6530 0.6995 0.2905
vn 0.1940 -0.8306 0.5220
vn -0.2207 0.6994 -0.6798
vn 0.5101 0.7187 -0.4725
vn -0.2312 0.4261 -0.8747
vn -0.0517 -0.8673 -0.4951
vn 0.5101 -0.7187 -0.4725
vn 0.4379 -0.6762 0.5925
vn -0.4653 -0.2442 -0.8508
vn 0.3577 -0.6992 -0.6191
vn 0.7013 -0.4948 -0.5131
vn -0.0517 0.8675 -0.4948
vn 0.2437 0.8505 -0.4661
vn 0.5786 -0.6992 -0.4200
vn -0.6180 0.6164 0.4880
vn -0.6532 0.6992 0.2906
vn 0.3467 -0.4593 -0.8178
vn -0.4783 -0.6991 -0.5315
vn 0.2343 0.9295 0.2848
vn -0.5612 -0.8118 0.1616
vn -0.9538 -0.2436 -0.1761
vn 0.9362 -0.3512 0.0090
vn 0.7195 -0.6859 -0.1086
vn -0.8463 -0.5303 0.0510
vn -0.7574 -0.6018 -0.2533
vn 0.3783 -0.9021 -0.2075
vn -0.9537 0.2436 -0.1761
vn -0.8463 0.5302 0.0510
vn 0.2343 -0.9295 0.2848
vn 0.6069 0.7453 0.2760
vn -0.0284 -0.9623 -0.2705
vn -0.4300 0.8561 -0.2866
vn -0.1788 0.9531 0.2443
vn 0.1090 -0.2658 -0.9578
vn 0.1090 -0.2660 -0.9578
vn 0.1091 -0.2659 -0.9578
vn 0.1091 -0.2660 -0.9578
vn 0.1089 -0.2659 -0.9578
vn 0.1088 -0.2659 -0.9578
vn 0.1091 -0.2662 -0.9577
vn 0.1088 -0.2656 -0.9579
vn -0.1088 0.2660 0.9578
vn -0.1090 0.2660 0.9578
vn -0.1089 0.2661 0.9578
vn -0.1091 0.2659 0.9578
vn -0.1091 0.2661 0.9578
vn -0.1088 0.2658 0.9579
vn -0.1087 0.2658 0.9579
vn -0.1087 0.2659 0.9578
vn 0.1090 0.2661 -0.9578
vn 0.1090 -0.2661 -0.9578
vn -0.1091 0.2660 0.9578
vn 0.2437 -0.8504 -0.4663
vn -0.6283 0.2981 -0.7186
vn -0.4652 0.2441 -0.8509
vn 0.5783 -0.6991 0.4204
vn 0.6992 -0.6992 0.1489
vn -0.7581 -0.3601 0.5437
vn 0.7846 0.2177 -0.5805
vn 0.0749 -0.6994 -0.7108
vn -0.4774 0.3946 0.7851
vn 0.0558 -0.5025 -0.8628
vn -0.4785 -0.6992 0.5311
vn -0.3837 0.7983 0.4643
vn -0.2211 -0.6993 0.6798
vn 0.0750 0.6991 -0.7111
vn 0.5905 0.3044 -0.7474
vn -0.6814 0.1932 0.7060
vn 0.6991 0.6994 0.1488
vn -0.6057 -0.0118 -0.7956
vn -0.2210 0.6997 0.6794
vn 0.7454 0.0651 -0.6634
vn 0.5906 -0.3045 -0.7474
vn 0.3573 0.6993 0.6191
vn 0.1942 0.8310 0.5213
vn -0.3251 -0.7664 -0.5541
vn -0.5288 0.5650 -0.6333
vn 0.0914 -0.4786 0.8733
vn -0.3251 0.7664 -0.5540
vn -0.6057 0.0118 -0.7956
vn 0.3467 0.4591 -0.8179
vn -0.9134 -0.0000 -0.4070
vn 0.9782 -0.0000 -0.2078
vn 0.9781 -0.0000 0.2081
vn 0.1043 -0.0000 0.9945
vn 0.4998 -0.0000 0.8661
vn 0.1048 -0.0000 -0.9945
vn -0.3087 -0.0000 -0.9512
vn 0.8088 -0.0000 0.5881
vn 0.8092 -0.0000 -0.5875
vn -0.3093 -0.0000 0.9510
vn -0.0284 0.9623 -0.2705
vn -0.9137 -0.0000 0.4064
vn -1.0000 -0.0000 -0.0003
vn -0.6689 -0.0000 -0.7434
vn 0.9782 -0.0000 -0.2076
vn -0.1088 -0.2659 0.9578
vn -0.2208 0.6991 -0.6801
vn 0.5490 0.1227 0.8268
vn -0.4783 0.6991 -0.5315
vn -0.6177 -0.6162 0.4885
vn 0.5782 -0.6996 -0.4198
vn -0.6531 -0.6991 -0.2910
vn -0.7150 0.6992 -0.0002
vn 0.6993 0.6992 -0.1485
vn 0.3575 -0.6995 -0.6187
vn -0.6532 -0.6992 0.2906
vn -0.4785 0.6992 0.5311
vn 0.0745 -0.6992 0.7110
vn -0.2211 0.6993 0.6798
vn 0.0745 -0.6995 0.7107
vn 0.0745 0.6992 0.7110
vn 0.4381 0.6763 0.5922
vn -0.4781 -0.6994 -0.5313
vn 0.3574 -0.6990 0.6194
vn 0.5783 0.6991 0.4204
vn -0.6531 0.6991 -0.2910
vn 0.6992 0.6992 0.1489
vn 0.6324 -0.1543 0.7591
vn -0.0964 0.8740 0.4763
vn 0.6993 -0.6992 -0.1485
vn 0.5786 0.6991 -0.4201
vn -0.2208 -0.6991 -0.6801
vn 0.3577 0.6992 -0.6191
vn -0.7805 -0.0738 0.6208
vn -0.7147 -0.6995 -0.0002
vn 0.0750 -0.6991 -0.7111
vn 0.5002 -0.0000 -0.8659
vn -0.3094 -0.0000 0.9509
vn -0.6693 -0.0000 0.7430
vn 0.9781 -0.0000 0.2082
vn -0.1090 0.2661 0.9578
vn 0.7846 -0.2177 -0.5805
vn -0.2207 -0.6994 -0.6799
vn -0.4781 0.6994 -0.5313
vn -0.2040 -0.4954 0.8444
vn 0.7014 0.4949 -0.5129
vn -0.6528 -0.6994 -0.2909
vn -0.7147 0.6995 -0.0002
vn 0.3575 0.3466 0.8672
vn -0.6284 -0.2981 -0.7185
vn -0.6530 -0.6995 0.2905
vn -0.4783 0.6995 0.5309
vn -0.7150 -0.6992 -0.0002
vn -0.7582 0.3601 0.5436
vn -0.2210 -0.6997 0.6794
vn 0.0745 0.6995 0.7107
vn -0.6815 -0.1932 0.7059
vn -0.5288 -0.5651 -0.6333
vn 0.3573 -0.6993 0.6191
vn -0.6528 0.6994 -0.2909
vn 0.5781 -0.6994 0.4203
vn 0.0915 0.4788 0.8732
vn 0.6991 -0.6994 0.1488
vn 0.5930 -0.4371 0.6763
vn 0.6992 -0.6994 -0.1484
vn 0.5782 0.6996 -0.4198
vn -0.0965 -0.8735 0.4771
vn 0.3575 0.6995 -0.6187
vn -0.2041 0.4957 0.8442
vn 0.0749 0.6994 -0.7108
vn 0.3574 -0.3465 0.8673
s 0
f 242//1 241//1 256//1 257//1
f 241//2 243//2 258//2 256//2
f 26//3 28//3 27//3 25//3
f 24//4 26//4 25//4 23//4
f 251//5 252//5 267//5 266//5
f 127//6 128//6 143//6 142//6
f 247//7 248//7 263//7 262//7
f 128//8 129//8 144//8 143//8
f 249//9 250//9 265//9 264//9
f 250//10 251//10 266//10 265//10
f 10//11 12//11 11//11 9//11
f 244//12 245//12 260//12 259//12
f 253//13 254//13 269//13 268//13
f 90//14 77//14 92//14 105//14
f 255//15 242//15 257//15 270//15
f 107//16 106//16 121//16 122//16
f 131//17 132//17 147//17 146//17
f 228//18 229//18 244//18 243//18
f 229//19 230//19 245//19 244//19
f 230//20 231//20 246//20 245//20
f 231//21 232//21 247//21 246//21
f 121//22 123//22 138//22 136//22
f 113//23 114//23 129//23 128//23
f 144//24 145//24 160//24 159//24
f 235//25 236//25 251//25 250//25
f 109//26 110//26 125//26 124//26
f 237//27 238//27 253//27 252//27
f 238//28 239//28 254//28 253//28
f 239//29 240//29 255//29 254//29
f 4//30 6//30 5//30 1//30
f 232//31 233//31 248//31 247//31
f 211//32 213//32 228//32 226//32
f 71//33 72//33 87//33 86//33
f 214//34 215//34 230//34 229//34
f 207//35 208//35 223//35 222//35
f 85//36 86//36 101//36 100//36
f 130//37 131//37 146//37 145//37
f 218//38 219//38 234//38 233//38
f 124//39 125//39 140//39 139//39
f 220//40 221//40 236//40 235//40
f 42//41 43//41 58//41 57//41
f 222//42 223//42 238//42 237//42
f 48//43 49//43 64//43 63//43
f 145//44 146//44 161//44 160//44
f 20//45 22//45 21//45 19//45
f 197//46 196//46 211//46 212//46
f 25//47 27//47 44//47 43//47
f 198//48 199//48 214//48 213//48
f 199//49 200//49 215//49 214//49
f 213//50 214//50 229//50 228//50
f 116//51 117//51 132//51 131//51
f 217//52 218//52 233//52 232//52
f 203//53 204//53 219//53 218//53
f 136//54 138//54 153//54 151//54
f 178//55 179//55 194//55 193//55
f 154//56 155//56 170//56 169//56
f 49//57 50//57 65//57 64//57
f 168//58 169//58 184//58 183//58
f 11//59 13//59 37//59 36//59
f 210//60 197//60 212//60 225//60
f 182//61 181//61 196//61 197//61
f 148//62 149//62 164//62 163//62
f 93//63 94//63 109//63 108//63
f 206//64 207//64 222//64 221//64
f 185//65 186//65 201//65 200//65
f 110//66 111//66 126//66 125//66
f 187//67 188//67 203//67 202//67
f 98//68 99//68 114//68 113//68
f 189//69 190//69 205//69 204//69
f 190//70 191//70 206//70 205//70
f 101//71 102//71 117//71 116//71
f 79//72 80//72 95//72 94//72
f 103//73 104//73 119//73 118//73
f 164//74 165//74 180//74 179//74
f 195//75 182//75 197//75 210//75
f 167//76 166//76 181//76 182//76
f 166//77 168//77 183//77 181//77
f 183//78 184//78 199//78 198//78
f 162//79 163//79 178//79 177//79
f 65//80 66//80 81//80 80//80
f 171//81 172//81 187//81 186//81
f 67//82 68//82 83//82 82//82
f 158//83 159//83 174//83 173//83
f 174//84 175//84 190//84 189//84
f 175//85 176//85 191//85 190//85
f 200//86 201//86 216//86 215//86
f 192//87 193//87 208//87 207//87
f 193//88 194//88 209//88 208//88
f 179//89 180//89 195//89 194//89
f 180//90 167//90 182//90 195//90
f 112//91 113//91 128//91 127//91
f 196//92 198//92 213//92 211//92
f 153//93 154//93 169//93 168//93
f 215//94 216//94 231//94 230//94
f 155//95 156//95 171//95 170//95
f 156//96 157//96 172//96 171//96
f 202//97 203//97 218//97 217//97
f 83//98 84//98 99//98 98//98
f 125//99 126//99 141//99 140//99
f 7//100 9//100 35//100 34//100
f 161//101 162//101 177//101 176//101
f 169//102 170//102 185//102 184//102
f 163//103 164//103 179//103 178//103
f 209//104 210//104 225//104 224//104
f 60//105 47//105 62//105 75//105
f 137//106 136//106 151//106 152//106
f 1//107 5//107 33//107 31//107
f 31//108 33//108 48//108 46//108
f 139//109 140//109 155//109 154//109
f 96//110 97//110 112//110 111//110
f 89//111 90//111 105//111 104//111
f 142//112 143//112 158//112 157//112
f 143//113 144//113 159//113 158//113
f 234//114 235//114 250//114 249//114
f 19//115 21//115 41//115 40//115
f 9//116 11//116 36//116 35//116
f 147//117 148//117 163//117 162//117
f 151//118 153//118 168//118 166//118
f 149//119 150//119 165//119 164//119
f 150//120 137//120 152//120 165//120
f 240//121 227//121 242//121 255//121
f 17//122 19//122 40//122 39//122
f 84//123 85//123 100//123 99//123
f 141//124 142//124 157//124 156//124
f 204//125 205//125 220//125 219//125
f 172//126 173//126 188//126 187//126
f 227//127 226//127 241//127 242//127
f 233//128 234//128 249//128 248//128
f 8//129 10//129 9//129 7//129
f 119//130 120//130 135//130 134//130
f 226//131 228//131 243//131 241//131
f 39//132 40//132 55//132 54//132
f 27//133 29//133 45//133 44//133
f 212//134 211//134 226//134 227//134
f 18//135 20//135 19//135 17//135
f 6//136 8//136 7//136 5//136
f 106//137 108//137 123//137 121//137
f 108//138 109//138 124//138 123//138
f 236//139 237//139 252//139 251//139
f 186//140 187//140 202//140 201//140
f 111//141 112//141 127//141 126//141
f 47//142 46//142 61//142 62//142
f 3//143 4//143 1//143 2//143
f 114//144 115//144 130//144 129//144
f 115//145 116//145 131//145 130//145
f 201//146 202//146 217//146 216//146
f 21//147 23//147 42//147 41//147
f 118//148 119//148 134//148 133//148
f 133//149 134//149 149//149 148//149
f 122//150 121//150 136//150 137//150
f 92//151 91//151 106//151 107//151
f 91//152 93//152 108//152 106//152
f 223//153 224//153 239//153 238//153
f 94//154 95//154 110//154 109//154
f 176//155 177//155 192//155 191//155
f 146//156 147//156 162//156 161//156
f 97//157 98//157 113//157 112//157
f 188//158 189//158 204//158 203//158
f 99//159 100//159 115//159 114//159
f 100//160 101//160 116//160 115//160
f 177//161 178//161 193//161 192//161
f 102//162 103//162 118//162 117//162
f 40//163 41//163 56//163 55//163
f 104//164 105//164 120//164 119//164
f 105//165 92//165 107//165 120//165
f 62//166 61//166 76//166 77//166
f 181//167 183//167 198//167 196//167
f 78//168 79//168 94//168 93//168
f 184//169 185//169 200//169 199//169
f 80//170 81//170 96//170 95//170
f 140//171 141//171 156//171 155//171
f 82//172 83//172 98//172 97//172
f 68//173 69//173 84//173 83//173
f 69//174 70//174 85//174 84//174
f 23//175 25//175 43//175 42//175
f 86//176 87//176 102//176 101//176
f 87//177 88//177 103//177 102//177
f 88//178 89//178 104//178 103//178
f 194//179 195//179 210//179 209//179
f 75//180 62//180 77//180 90//180
f 152//181 151//181 166//181 167//181
f 61//182 63//182 78//182 76//182
f 63//183 64//183 79//183 78//183
f 64//184 65//184 80//184 79//184
f 95//185 96//185 111//185 110//185
f 66//186 67//186 82//186 81//186
f 157//187 158//187 173//187 172//187
f 53//188 54//188 69//188 68//188
f 159//189 160//189 175//189 174//189
f 160//190 161//190 176//190 175//190
f 33//191 34//191 49//191 48//191
f 72//192 73//192 88//192 87//192
f 73//193 74//193 89//193 88//193
f 74//194 75//194 90//194 89//194
f 165//195 152//195 167//195 180//195
f 134//196 135//196 150//196 149//196
f 46//197 48//197 63//197 61//197
f 170//198 171//198 186//198 185//198
f 221//199 222//199 237//199 236//199
f 50//200 51//200 66//200 65//200
f 51//201 52//201 67//201 66//201
f 52//202 53//202 68//202 67//202
f 38//203 39//203 54//203 53//203
f 54//204 55//204 70//204 69//204
f 55//205 56//205 71//205 70//205
f 56//206 57//206 72//206 71//206
f 57//207 58//207 73//207 72//207
f 58//208 59//208 74//208 73//208
f 59//209 60//209 75//209 74//209
f 225//210 212//210 227//210 240//210
f 32//211 31//211 46//211 47//211
f 5//212 7//212 34//212 33//212
f 191//213 192//213 207//213 206//213
f 282//214 336//214 335//214 280//214
f 35//215 36//215 51//215 50//215
f 36//216 37//216 52//216 51//216
f 37//217 38//217 53//217 52//217
f 135//218 122//218 137//218 150//218
f 132//219 133//219 148//219 147//219
f 208//220 209//220 224//220 223//220
f 41//221 42//221 57//221 56//221
f 34//222 35//222 50//222 49//222
f 43//223 44//223 59//223 58//223
f 44//224 45//224 60//224 59//224
f 45//225 32//225 47//225 60//225
f 2//226 1//226 31//226 32//226
f 219//227 220//227 235//227 234//227
f 81//228 82//228 97//228 96//228
f 205//229 206//229 221//229 220//229
f 117//230 118//230 133//230 132//230
f 224//231 225//231 240//231 239//231
f 13//232 15//232 38//232 37//232
f 15//233 17//233 39//233 38//233
f 126//234 127//234 142//234 141//234
f 76//235 78//235 93//235 91//235
f 216//236 217//236 232//236 231//236
f 70//237 71//237 86//237 85//237
f 138//238 139//238 154//238 153//238
f 123//239 124//239 139//239 138//239
f 29//240 2//240 32//240 45//240
f 30//241 3//241 2//241 29//241
f 254//242 255//242 270//242 269//242
f 22//243 24//243 23//243 21//243
f 252//244 253//244 268//244 267//244
f 129//245 130//245 145//245 144//245
f 12//246 14//246 13//246 11//246
f 120//247 107//247 122//247 135//247
f 276//248 275//248 277//248 278//248
f 14//249 16//249 15//249 13//249
f 246//250 247//250 262//250 261//250
f 245//251 246//251 261//251 260//251
f 77//252 76//252 91//252 92//252
f 243//253 244//253 259//253 258//253
f 28//254 30//254 29//254 27//254
f 173//255 174//255 189//255 188//255
f 3//256 6//256 4//256
f 3//257 8//257 6//257
f 3//258 10//258 8//258
f 3//259 12//259 10//259
f 3//260 14//260 12//260
f 3//260 16//260 14//260
f 3//260 18//260 16//260
f 3//261 20//261 18//261
f 3//262 22//262 20//262
f 3//263 24//263 22//263
f 3//264 26//264 24//264
f 3//264 28//264 26//264
f 3//257 30//257 28//257
f 257//265 256//265 258//265
f 257//266 258//266 259//266
f 257//267 259//267 260//267
f 257//268 260//268 261//268
f 257//269 261//269 262//269
f 257//270 262//270 263//270
f 257//269 263//269 264//269
f 257//270 264//270 265//270
f 257//269 265//269 266//269
f 257//271 266//271 267//271
f 257//272 267//272 268//272
f 257//273 268//273 269//273
f 257//273 269//273 270//273
f 367//274 365//274 366//274 368//274
f 288//275 287//275 289//275 290//275
f 385//276 383//276 384//276 386//276
f 364//277 389//277 390//277 362//277
f 371//278 369//278 370//278 372//278
f 365//279 361//279 363//279 366//279
f 373//280 371//280 372//280 374//280
f 375//281 373//281 374//281 376//281
f 294//282 293//282 295//282 296//282
f 298//283 297//283 299//283 300//283
f 248//284 249//284 264//284 263//284
f 278//285 277//285 279//285 280//285
f 369//286 367//286 368//286 370//286
f 381//287 379//287 380//287 382//287
f 16//288 18//288 17//288 15//288
f 301//289 302//289 303//289
f 304//290 301//290 303//290
f 305//291 304//291 303//291
f 306//291 305//291 303//291
f 307//292 306//292 303//292
f 308//292 307//292 303//292
f 309//290 308//290 303//290
f 310//292 309//292 303//292
f 311//293 310//293 303//293
f 312//290 311//290 303//290
f 313//294 312//294 303//294
f 314//295 313//295 303//295
f 315//296 314//296 303//296
f 316//297 317//297 318//297
f 318//298 319//298 320//298
f 318//299 320//299 321//299
f 318//298 321//298 322//298
f 318//300 322//300 323//300
f 318//301 323//301 324//301
f 318//302 324//302 325//302
f 318//298 325//298 326//298
f 318//302 326//302 327//302
f 318//302 327//302 328//302
f 318//303 328//303 329//303
f 318//304 329//304 330//304
f 316//297 318//297 330//297
f 572//305 571//305 614//305 615//305
f 301//306 304//306 343//306 344//306
f 484//305 485//305 522//305 523//305
f 504//307 503//307 532//307 533//307
f 306//292 307//292 340//292 341//292
f 437//308 407//308 410//308 438//308
f 302//292 301//292 344//292 345//292
f 329//302 328//302 357//302 358//302
f 487//305 488//305 519//305 520//305
f 303//291 302//291 345//291 331//291
f 432//309 395//309 394//309 433//309
f 330//310 329//310 358//310 359//310
f 434//311 391//311 393//311 435//311
f 435//309 393//309 392//309 421//309
f 582//305 583//305 604//305 605//305
f 317//298 316//298 360//298 346//298
f 311//292 312//292 335//292 336//292
f 312//291 313//291 334//291 335//291
f 436//312 408//312 407//312 437//312
f 506//307 505//307 534//307 535//307
f 314//290 315//290 332//290 333//290
f 422//313 405//313 404//313 423//313
f 305//314 306//314 341//314 342//314
f 309//292 310//292 337//292 338//292
f 444//315 415//315 416//315 445//315
f 438//315 410//315 409//315 439//315
f 320//302 319//302 348//302 349//302
f 426//316 401//316 400//316 427//316
f 304//292 305//292 342//292 343//292
f 290//317 340//317 339//317 288//317
f 438//318 439//318 387//318 389//318
f 566//319 613//319 612//319 564//319
f 551//320 627//320 626//320 553//320
f 449//321 450//321 365//321 367//321
f 448//322 449//322 367//322 369//322
f 440//323 441//323 383//323 385//323
f 562//324 611//324 610//324 560//324
f 447//325 448//325 369//325 371//325
f 428//326 429//326 378//326 376//326
f 287//327 354//327 353//327 289//327
f 470//328 520//328 519//328 468//328
f 552//329 606//329 605//329 550//329
f 283//330 356//330 355//330 285//330
f 542//331 602//331 601//331 543//331
f 276//332 333//332 332//332 272//332
f 429//333 430//333 380//333 378//333
f 435//334 421//334 362//334 390//334
f 422//335 423//335 366//335 363//335
f 281//336 357//336 356//336 283//336
f 292//337 341//337 340//337 290//337
f 477//338 529//338 528//338 479//338
f 423//339 424//339 368//339 366//339
f 273//340 331//340 345//340 300//340
f 272//341 332//341 331//341 273//341
f 475//342 530//342 529//342 477//342
f 442//343 443//343 379//343 381//343
f 462//344 516//344 515//344 460//344
f 286//345 338//345 337//345 284//345
f 451//346 526//346 540//346 455//346
f 273//347 274//347 271//347 272//347
f 389//348 387//348 388//348 390//348
f 292//349 291//349 293//349 294//349
f 280//350 279//350 281//350 282//350
f 282//351 281//351 283//351 284//351
f 387//352 385//352 386//352 388//352
f 290//353 289//353 291//353 292//353
f 284//354 283//354 285//354 286//354
f 383//355 381//355 382//355 384//355
f 296//356 295//356 297//356 298//356
f 361//357 364//357 362//357 363//357
f 272//358 271//358 275//358 276//358
f 286//359 285//359 287//359 288//359
f 379//360 377//360 378//360 380//360
f 300//361 299//361 274//361 273//361
f 391//362 392//362 393//362
f 394//363 392//363 391//363
f 395//363 392//363 394//363
f 396//364 392//364 395//364
f 397//311 392//311 396//311
f 398//311 392//311 397//311
f 399//363 392//363 398//363
f 400//311 392//311 399//311
f 401//365 392//365 400//365
f 402//366 392//366 401//366
f 403//367 392//367 402//367
f 404//368 392//368 403//368
f 405//369 392//369 404//369
f 406//370 407//370 408//370
f 407//371 409//371 410//371
f 407//308 411//308 409//308
f 407//315 412//315 411//315
f 407//372 413//372 412//372
f 407//373 414//373 413//373
f 407//315 415//315 414//315
f 407//371 416//371 415//371
f 407//315 417//315 416//315
f 407//315 418//315 417//315
f 407//374 419//374 418//374
f 407//375 420//375 419//375
f 406//376 420//376 407//376
f 585//305 573//305 601//305 602//305
f 316//298 330//298 359//298 360//298
f 429//311 398//311 397//311 430//311
f 500//307 499//307 528//307 529//307
f 307//314 308//314 339//314 340//314
f 483//305 482//305 525//305 511//305
f 445//371 416//371 417//371 446//371
f 326//302 325//302 354//302 355//302
f 325//302 324//302 353//302 354//302
f 441//377 412//377 413//377 442//377
f 423//311 404//311 403//311 424//311
f 310//378 311//378 336//378 337//378
f 447//315 418//315 419//315 448//315
f 427//363 400//363 399//363 428//363
f 308//314 309//314 338//314 339//314
f 490//305 491//305 516//305 517//305
f 439//371 409//371 411//371 440//371
f 433//379 394//379 391//379 434//379
f 313//292 314//292 333//292 334//292
f 442//375 413//375 414//375 443//375
f 449//380 420//380 406//380 450//380
f 448//315 419//315 420//315 449//315
f 578//305 579//305 608//305 609//305
f 428//311 399//311 398//311 429//311
f 327//298 326//298 355//298 356//298
f 328//299 327//299 356//299 357//299
f 440//371 411//371 412//371 441//371
f 324//304 323//304 352//304 353//304
f 323//310 322//310 351//310 352//310
f 494//305 495//305 512//305 513//305
f 421//381 422//381 363//381 362//381
f 501//307 500//307 529//307 530//307
f 296//382 343//382 342//382 294//382
f 430//383 431//383 382//383 380//383
f 469//384 533//384 532//384 471//384
f 471//385 532//385 531//385 473//385
f 291//386 352//386 351//386 293//386
f 280//387 335//387 334//387 278//387
f 569//388 618//388 617//388 544//388
f 297//389 349//389 348//389 299//389
f 288//390 339//390 338//390 286//390
f 461//391 537//391 536//391 463//391
f 443//392 444//392 377//392 379//392
f 463//393 536//393 535//393 465//393
f 453//394 511//394 525//394 480//394
f 426//395 427//395 374//395 372//395
f 295//396 350//396 349//396 297//396
f 564//397 612//397 611//397 562//397
f 431//398 432//398 384//398 382//398
f 556//399 608//399 607//399 554//399
f 425//400 426//400 372//400 370//400
f 284//401 337//401 336//401 282//401
f 560//402 610//402 609//402 558//402
f 445//403 446//403 373//403 375//403
f 434//404 435//404 390//404 388//404
f 298//405 344//405 343//405 296//405
f 436//406 437//406 364//406 361//406
f 300//407 345//407 344//407 298//407
f 294//408 342//408 341//408 292//408
f 427//409 428//409 376//409 374//409
f 456//410 455//410 457//410 458//410
f 474//411 473//411 475//411 476//411
f 562//412 561//412 563//412 564//412
f 556//413 555//413 557//413 558//413
f 468//414 467//414 469//414 470//414
f 570//415 569//415 544//415 543//415
f 453//416 454//416 451//416 452//416
f 470//417 469//417 471//417 472//417
f 476//418 475//418 477//418 478//418
f 464//419 463//419 465//419 466//419
f 377//420 375//420 376//420 378//420
f 460//421 459//421 461//421 462//421
f 548//422 547//422 549//422 550//422
f 452//423 451//423 455//423 456//423
f 564//424 563//424 565//424 566//424
f 481//305 482//305 483//305
f 484//305 481//305 483//305
f 485//305 484//305 483//305
f 486//305 485//305 483//305
f 487//305 486//305 483//305
f 488//305 487//305 483//305
f 489//305 488//305 483//305
f 490//305 489//305 483//305
f 491//305 490//305 483//305
f 492//305 491//305 483//305
f 493//305 492//305 483//305
f 494//305 493//305 483//305
f 495//305 494//305 483//305
f 496//307 497//307 498//307
f 498//307 499//307 500//307
f 498//307 500//307 501//307
f 498//307 501//307 502//307
f 498//307 502//307 503//307
f 498//307 503//307 504//307
f 498//307 504//307 505//307
f 498//307 505//307 506//307
f 498//307 506//307 507//307
f 498//307 507//307 508//307
f 498//307 508//307 509//307
f 498//307 509//307 510//307
f 496//307 498//307 510//307
f 498//307 497//307 526//307 527//307
f 584//305 585//305 602//305 603//305
f 583//305 584//305 603//305 604//305
f 510//307 509//307 538//307 539//307
f 599//307 598//307 627//307 628//307
f 580//305 581//305 606//305 607//305
f 507//307 506//307 535//307 536//307
f 318//425 317//425 346//425 347//425
f 595//307 594//307 623//307 624//307
f 446//308 417//308 418//308 447//308
f 503//307 502//307 531//307 532//307
f 592//307 591//307 620//307 621//307
f 421//366 392//366 405//366 422//366
f 430//379 397//379 396//379 431//379
f 573//305 572//305 615//305 601//305
f 588//307 587//307 616//307 617//307
f 589//307 588//307 617//307 618//307
f 482//305 481//305 524//305 525//305
f 481//305 484//305 523//305 524//305
f 574//305 575//305 612//305 613//305
f 319//299 318//299 347//299 348//299
f 486//305 487//305 520//305 521//305
f 577//305 578//305 609//305 610//305
f 488//305 489//305 518//305 519//305
f 508//307 507//307 536//307 537//307
f 321//300 320//300 349//300 350//300
f 315//378 303//378 331//378 332//378
f 600//307 599//307 628//307 629//307
f 485//305 486//305 521//305 522//305
f 431//309 396//309 395//309 432//309
f 452//426 512//426 511//426 453//426
f 275//427 360//427 359//427 277//427
f 456//428 513//428 512//428 452//428
f 289//429 353//429 352//429 291//429
f 565//430 620//430 619//430 567//430
f 455//431 540//431 539//431 457//431
f 460//432 515//432 514//432 458//432
f 476//433 523//433 522//433 474//433
f 567//434 619//434 618//434 569//434
f 459//435 538//435 537//435 461//435
f 464//436 517//436 516//436 462//436
f 465//437 535//437 534//437 467//437
f 466//438 518//438 517//438 464//438
f 555//439 625//439 624//439 557//439
f 468//440 519//440 518//440 466//440
f 446//441 447//441 371//441 373//441
f 541//442 616//442 630//442 545//442
f 467//443 534//443 533//443 469//443
f 472//444 521//444 520//444 470//444
f 458//445 514//445 513//445 456//445
f 474//446 522//446 521//446 472//446
f 277//447 359//447 358//447 279//447
f 444//448 445//448 375//448 377//448
f 473//449 531//449 530//449 475//449
f 478//450 524//450 523//450 476//450
f 454//451 527//451 526//451 451//451
f 480//452 525//452 524//452 478//452
f 293//453 351//453 350//453 295//453
f 547//454 629//454 628//454 549//454
f 479//455 528//455 527//455 454//455
f 458//422 457//422 459//422 460//422
f 478//456 477//456 479//456 480//456
f 558//414 557//414 559//414 560//414
f 543//416 544//416 541//416 542//416
f 542//423 541//423 545//423 546//423
f 566//418 565//418 567//418 568//418
f 466//413 465//413 467//413 468//413
f 480//415 479//415 454//415 453//415
f 554//457 553//457 555//457 556//457
f 552//458 551//458 553//458 554//458
f 550//421 549//421 551//421 552//421
f 472//459 471//459 473//459 474//459
f 546//410 545//410 547//410 548//410
f 560//417 559//417 561//417 562//417
f 568//456 567//456 569//456 570//456
f 571//305 572//305 573//305
f 574//305 571//305 573//305
f 575//305 574//305 573//305
f 576//305 575//305 573//305
f 577//305 576//305 573//305
f 578//305 577//305 573//305
f 579//305 578//305 573//305
f 580//305 579//305 573//305
f 581//305 580//305 573//305
f 582//305 581//305 573//305
f 583//305 582//305 573//305
f 584//305 583//305 573//305
f 585//305 584//305 573//305
f 586//307 587//307 588//307
f 588//307 589//307 590//307
f 588//307 590//307 591//307
f 588//307 591//307 592//307
f 588//307 592//307 593//307
f 588//307 593//307 594//307
f 588//307 594//307 595//307
f 588//307 595//307 596//307
f 588//307 596//307 597//307
f 588//307 597//307 598//307
f 588//307 598//307 599//307
f 588//307 599//307 600//307
f 586//307 588//307 600//307
f 495//305 483//305 511//305 512//305
f 587//307 586//307 630//307 616//307
f 586//307 600//307 629//307 630//307
f 492//305 493//305 514//305 515//305
f 509//307 508//307 537//307 538//307
f 598//307 597//307 626//307 627//307
f 597//307 596//307 625//307 626//307
f 596//307 595//307 624//307 625//307
f 591//307 590//307 619//307 620//307
f 594//307 593//307 622//307 623//307
f 443//312 414//312 415//312 444//312
f 450//460 406//460 408//460 436//460
f 576//305 577//305 610//305 611//305
f 590//307 589//307 618//307 619//307
f 499//307 498//307 527//307 528//307
f 493//305 494//305 513//305 514//305
f 424//309 403//309 402//309 425//309
f 322//299 321//299 350//299 351//299
f 571//305 574//305 613//305 614//305
f 502//307 501//307 530//307 531//307
f 575//305 576//305 611//305 612//305
f 593//307 592//307 621//307 622//307
f 505//307 504//307 533//307 534//307
f 491//305 492//305 515//305 516//305
f 425//311 402//311 401//311 426//311
f 489//305 490//305 517//305 518//305
f 581//305 582//305 605//305 606//305
f 579//305 580//305 607//305 608//305
f 496//307 510//307 539//307 540//307
f 497//307 496//307 540//307 526//307
f 424//461 425//461 370//461 368//461
f 544//462 617//462 616//462 541//462
f 546//463 603//463 602//463 542//463
f 437//464 438//464 389//464 364//464
f 278//465 334//465 333//465 276//465
f 545//466 630//466 629//466 547//466
f 550//467 605//467 604//467 548//467
f 271//468 346//468 360//468 275//468
f 432//469 433//469 386//469 384//469
f 549//470 628//470 627//470 551//470
f 554//471 607//471 606//471 552//471
f 457//472 539//472 538//472 459//472
f 441//473 442//473 381//473 383//473
f 553//474 626//474 625//474 555//474
f 558//475 609//475 608//475 556//475
f 439//476 440//476 385//476 387//476
f 433//477 434//477 388//477 386//477
f 557//478 624//478 623//478 559//478
f 548//479 604//479 603//479 546//479
f 559//480 623//480 622//480 561//480
f 274//481 347//481 346//481 271//481
f 561//482 622//482 621//482 563//482
f 279//483 358//483 357//483 281//483
f 563//484 621//484 620//484 565//484
f 568//485 614//485 613//485 566//485
f 285//486 355//486 354//486 287//486
f 570//487 615//487 614//487 568//487
f 299//488 348//488 347//488 274//488
f 543//489 601//489 615//489 570//489
f 450//490 436//490 361//490 365//490
f 462//458 461//458 463//458 464//458
