# Gripper model
# half_extents: 0.030000 0.020000 0.020000
# full_size: 0.060000 x 0.040000 x 0.040000

v 0.03000000 -0.02000000 -0.02000000
v 0.03000000 -0.02000000 0.02000000
v -0.03000000 -0.02000000 0.02000000
v -0.03000000 -0.02000000 -0.02000000
v 0.03000000 0.02000000 -0.02000000
v 0.03000000 0.02000000 0.02000000
v -0.03000000 0.02000000 0.02000000
v -0.03000000 0.02000000 -0.02000000

vt 0.000000 0.000000
vt 1.000000 0.000000
vt 1.000000 1.000000
vt 0.000000 1.000000

vn 0.000000 -1.000000 0.000000
vn 0.000000 1.000000 0.000000
vn 1.000000 0.000000 0.000000
vn 0.000000 0.000000 1.000000
vn -1.000000 0.000000 0.000000
vn 0.000000 0.000000 -1.000000

f 2/1/1 3/2/1 4/3/1
f 2/1/1 4/2/1 1/3/1
f 5/1/2 8/2/2 7/3/2
f 5/1/2 7/2/2 6/3/2
f 1/1/6 4/2/6 8/3/6
f 1/1/6 8/2/6 5/3/6
f 2/1/3 1/2/3 5/3/3
f 2/1/3 5/2/3 6/3/3
f 3/1/4 2/2/4 6/3/4
f 3/1/4 6/2/4 7/3/4
f 4/1/5 3/2/5 7/3/5
f 4/1/5 7/2/5 8/3/5
